<svg width="290" height="239" viewBox="0 0 290 239" fill="none" xmlns="http://www.w3.org/2000/svg">
<path d="M251.8 168.16C251.511 167.358 251.159 166.585 250.749 165.85C249.465 162.663 251.967 159.381 253.743 156.521C255.257 154.079 256.328 151.339 256.897 148.451C257.002 148.116 257.044 147.76 257.019 147.407C256.994 147.053 256.903 146.709 256.752 146.395C256.596 146.184 256.401 146.012 256.18 145.891C255.958 145.77 255.715 145.703 255.468 145.694C253.837 145.567 252.496 147.105 251.698 148.674C250.901 150.243 250.314 152.036 249.038 153.159C246.565 155.326 242.085 154.514 240.794 157.692C239.997 159.66 240.99 162.329 239.678 163.93C239.203 164.419 238.646 164.803 238.039 165.061C234.545 166.886 231.34 169.634 229.463 173.355C225.279 181.68 232.181 195.805 241.606 191.049C247.443 188.109 245.645 182.66 246.522 177.505C247.102 174.016 252.597 171.729 251.8 168.16Z" fill="#2F282A"/>
<path d="M237.858 192.395C236.625 192.373 235.41 192.066 234.292 191.494C233.173 190.921 232.178 190.096 231.369 189.073C227.781 184.811 226.802 177.824 229.151 173.14C231.326 168.774 235.117 166.129 237.887 164.679L238.003 164.615C238.525 164.391 239.002 164.058 239.409 163.635C240.055 162.839 240.062 161.707 240.077 160.496C240.02 159.479 240.153 158.46 240.468 157.501C241.28 155.485 243.245 154.944 245.152 154.426C246.459 154.178 247.705 153.636 248.813 152.833C249.679 151.939 250.361 150.853 250.814 149.646C250.995 149.24 251.183 148.849 251.386 148.443C251.901 147.431 253.322 145.097 255.497 145.256C255.798 145.265 256.093 145.346 256.361 145.495C256.629 145.644 256.864 145.856 257.049 146.117C257.232 146.478 257.345 146.877 257.38 147.288C257.415 147.7 257.371 148.115 257.252 148.507C256.669 151.442 255.578 154.228 254.04 156.712C253.851 157.023 253.648 157.342 253.445 157.66C251.843 160.178 250.016 163.038 251.075 165.627C251.201 165.918 251.343 166.2 251.502 166.471C251.782 166.945 252 167.46 252.148 168.001C252.641 170.208 251.038 171.913 249.48 173.578C248.32 174.813 247.116 176.087 246.877 177.505C246.684 178.823 246.577 180.154 246.558 181.489C246.42 185.408 246.29 189.105 241.758 191.391C240.54 192.032 239.209 192.374 237.858 192.395ZM255.258 146.085C253.605 146.085 252.43 148.013 251.995 148.865C251.8 149.248 251.618 149.662 251.437 150.036C250.947 151.338 250.204 152.507 249.262 153.462C248.079 154.348 246.737 154.946 245.326 155.215C243.513 155.716 241.802 156.187 241.128 157.852C240.855 158.71 240.742 159.621 240.794 160.528C240.794 161.827 240.794 163.181 239.939 164.193C239.474 164.696 238.922 165.092 238.315 165.356L238.199 165.42C235.523 166.814 231.884 169.403 229.782 173.546C227.607 177.928 228.505 184.508 231.898 188.531C233.044 190.012 234.608 191.03 236.341 191.421C238.074 191.812 239.877 191.555 241.461 190.69C245.586 188.603 245.702 185.305 245.811 181.473C245.828 180.109 245.937 178.748 246.137 177.402C246.42 175.737 247.704 174.366 248.951 173.052C250.401 171.459 251.814 170.017 251.415 168.272C251.286 167.806 251.095 167.363 250.85 166.957C250.681 166.656 250.526 166.345 250.386 166.025C249.168 162.998 251.111 159.947 252.822 157.262C253.025 156.943 253.228 156.633 253.417 156.322C254.899 153.92 255.952 151.23 256.52 148.395C256.699 147.823 256.667 147.197 256.433 146.65C256.309 146.486 256.154 146.353 255.978 146.261C255.803 146.169 255.612 146.12 255.417 146.117L255.258 146.085Z" fill="#2F282A"/>
<path d="M49.8873 170.63C47.2918 168.758 46.7915 164.886 45.2908 161.867C43.239 157.772 39.2298 155.326 35.1915 153.9C34.5173 153.653 33.64 153.494 33.2123 154.115C33.0137 154.452 32.9338 154.857 32.9875 155.254C33.2123 159.644 37.3375 162.918 37.468 167.308C37.5188 169.754 36.3008 172.343 37.3085 174.526C38.3163 176.709 41.0133 177.338 41.8905 179.529C42.4995 181.058 42.0138 182.811 42.021 184.476C42.108 195.821 60.9653 196.848 65.0978 188.38C66.961 184.572 65.5835 179.895 63.2708 176.733C59.3703 171.395 54.375 173.865 49.8873 170.63Z" fill="#2F282A"/>
<path d="M53.969 194.387C52.5187 194.393 51.0728 194.209 49.6625 193.837C44.689 192.483 41.6875 189.001 41.6875 184.516C41.6944 183.983 41.7259 183.452 41.7818 182.923C41.9606 181.859 41.8933 180.763 41.586 179.736C41.068 178.74 40.317 177.915 39.411 177.346C38.4089 176.704 37.5709 175.794 36.975 174.701C36.2863 173.203 36.5618 171.554 36.8228 169.961C36.9954 169.094 37.0877 168.211 37.0983 167.324C37.0548 165.205 36.018 163.341 34.9233 161.413C33.8285 159.485 32.7483 157.541 32.625 155.278C32.5711 154.785 32.6762 154.286 32.9223 153.868C33.3718 153.231 34.1693 153.111 35.3003 153.526C40.3245 155.35 43.7973 158.099 45.6098 161.723C46.0812 162.72 46.4976 163.747 46.8568 164.798C47.6543 167.013 48.4083 169.108 50.083 170.311C51.9028 171.626 53.8603 171.976 55.7525 172.311C58.435 172.789 61.2045 173.283 63.5535 176.502C65.7285 179.441 67.4758 184.365 65.4168 188.579C63.4955 192.507 58.6453 194.387 53.969 194.387ZM34.1403 154.075C34.0205 154.065 33.9001 154.085 33.7883 154.133C33.6765 154.181 33.5762 154.257 33.495 154.354C33.3548 154.622 33.3036 154.934 33.35 155.238C33.4515 157.294 34.4665 159.094 35.525 160.99C36.5835 162.886 37.7653 164.974 37.816 167.3C37.8067 168.243 37.7096 169.183 37.526 170.104C37.2723 171.634 37.033 173.084 37.613 174.343C38.1597 175.286 38.9059 176.071 39.788 176.629C40.8112 177.283 41.6533 178.23 42.224 179.37C42.586 180.513 42.6734 181.739 42.4778 182.931C42.4343 183.448 42.3908 183.974 42.3908 184.476C42.4343 190.387 47.618 192.443 49.8438 193.032C55.1943 194.482 62.4225 193.032 64.786 188.189C66.6783 184.317 65.0035 179.728 62.9953 176.98C60.8203 174 58.3045 173.554 55.6438 173.084C53.679 172.733 51.6418 172.367 49.6915 170.957C47.7413 169.547 46.9945 167.308 46.1898 165.077C45.8331 164.054 45.419 163.057 44.95 162.09C43.2245 158.656 39.875 156.027 35.0465 154.275C34.7548 154.16 34.4496 154.093 34.1403 154.075Z" fill="#2F282A"/>
<path d="M63.7203 157.74C63.7928 155.884 64.7933 154.219 65.0253 152.378C65.5908 147.766 61.4511 144.412 58.7251 140.827C55.8251 137.027 54.3025 132.247 52.635 127.698C52.026 126.041 51.3445 124.32 50.0685 123.212C48.7925 122.105 46.7335 121.874 45.6315 123.212C44.8195 124.192 44.7688 125.666 44.8485 126.997C45.0499 130.178 45.7361 133.299 46.8786 136.23C47.9008 138.859 49.3218 141.568 48.8723 144.388C48.5026 146.714 46.9438 148.539 45.7258 150.474C44.5078 152.41 43.5508 154.984 44.5875 157.063C45.2038 158.338 46.4 159.11 47.4295 160.003C49.3875 161.775 50.8227 164.145 51.5532 166.814C52.2837 169.484 52.2767 172.331 51.5331 174.996C51.0037 176.363 50.6123 177.789 50.3658 179.25C50.1483 181.712 51.3808 184.07 52.9395 185.854C58.6453 192.371 73.8123 193.518 76.2483 182.668C77.3141 177.928 75.3711 171.761 72.3986 168.328C69.6436 165.125 63.5173 162.99 63.7203 157.74Z" fill="#2F282A"/>
<path d="M64.9382 191.152C60.3055 191.152 55.448 189.256 52.6785 186.085C51.562 184.811 49.735 182.222 50.0105 179.17C50.1447 178.117 50.4056 177.089 50.7862 176.111C50.924 175.713 51.069 175.314 51.185 174.9C51.9004 172.312 51.9043 169.549 51.1962 166.958C50.4881 164.367 49.0996 162.064 47.2047 160.337L46.5377 159.779C45.6219 159.141 44.8468 158.286 44.2685 157.278C43.0432 154.745 44.4715 151.805 45.4285 150.275C45.6895 149.861 45.9722 149.479 46.2477 149.032C47.2265 147.582 48.2415 146.077 48.517 144.348C48.8722 142.101 47.9515 139.855 47.067 137.688C46.893 137.258 46.719 136.835 46.5522 136.405C45.3902 133.421 44.6965 130.243 44.5005 127.005C44.4135 125.698 44.4425 124.049 45.3777 122.926C46.6537 121.388 48.9302 121.715 50.3005 122.926C51.6707 124.137 52.316 125.778 52.9757 127.578L53.5195 129.092C54.9695 133.115 56.4702 137.282 59.0077 140.588C59.5805 141.337 60.2402 142.101 60.871 142.842C63.3215 145.686 65.859 148.634 65.3877 152.45C65.2523 153.315 65.0335 154.162 64.7352 154.976C64.3919 155.866 64.1743 156.809 64.09 157.772C63.9522 161.174 66.7 163.229 69.3607 165.213C70.5458 166.029 71.6534 166.974 72.6667 168.033C75.951 171.785 77.6475 178.103 76.6107 182.715C75.7262 186.643 73.0872 189.439 69.1795 190.595C67.7935 190.98 66.3679 191.168 64.9382 191.152ZM47.6615 122.687C47.3332 122.675 47.0065 122.74 46.7028 122.877C46.3991 123.014 46.1253 123.221 45.8997 123.483C45.1747 124.376 45.1385 125.818 45.1747 126.965C45.3661 130.115 46.0401 133.207 47.1685 136.11C47.3352 136.533 47.5092 136.955 47.6832 137.377C48.6185 139.656 49.5827 142.014 49.1912 144.499C48.8867 146.419 47.821 147.997 46.7915 149.526C46.516 149.925 46.2477 150.331 45.9867 150.745C45.2617 151.853 43.8117 154.673 44.8702 156.919C45.401 157.825 46.1064 158.592 46.9365 159.166C47.1685 159.349 47.3932 159.54 47.618 159.732C49.6275 161.56 51.1003 164.001 51.8511 166.746C52.6018 169.492 52.5971 172.42 51.8375 175.163C51.7142 175.577 51.5692 175.96 51.4242 176.406C51.088 177.318 50.8614 178.274 50.75 179.25C50.5035 181.983 52.2 184.365 53.2222 185.536C56.695 189.519 63.6332 191.383 69.0055 189.798C71.5865 189.001 74.878 187.161 75.922 182.5C77.0022 177.72 74.8562 171.642 72.1592 168.551C71.1793 167.535 70.1108 166.628 68.9692 165.842C66.2795 163.834 63.2345 161.564 63.3795 157.716C63.4776 156.669 63.7222 155.646 64.1045 154.681C64.3902 153.912 64.5969 153.11 64.7207 152.291C65.1485 148.857 62.7342 146.053 60.3707 143.336C59.7327 142.587 59.0657 141.823 58.4785 141.05C55.8612 137.64 54.346 133.418 52.8742 129.331L52.3232 127.825C51.707 126.128 51.0545 124.519 49.8727 123.499C49.2372 122.968 48.4599 122.683 47.6615 122.687Z" fill="#2F282A"/>
<path d="M187.492 194.474H238.358V142.42H187.492V194.474Z" fill="#007ED2"/>
<path d="M238.358 194.865H187.492C187.396 194.865 187.304 194.823 187.236 194.748C187.168 194.673 187.13 194.572 187.13 194.466V142.412C187.13 142.306 187.168 142.205 187.236 142.13C187.304 142.056 187.396 142.014 187.492 142.014H238.358C238.454 142.014 238.547 142.056 238.615 142.13C238.683 142.205 238.721 142.306 238.721 142.412V194.466C238.721 194.572 238.683 194.673 238.615 194.748C238.547 194.823 238.454 194.865 238.358 194.865ZM187.855 194.068H237.996V142.81H187.855V194.068Z" fill="#2F282A"/>
<path d="M122.119 194.466H172.985V117.907H122.119V194.466Z" fill="#007ED2"/>
<path d="M172.985 194.865H122.112C122.016 194.865 121.923 194.823 121.855 194.748C121.787 194.673 121.749 194.572 121.749 194.466V117.907C121.751 117.802 121.79 117.701 121.858 117.627C121.925 117.553 122.016 117.51 122.112 117.508H172.985C173.081 117.51 173.172 117.553 173.239 117.627C173.307 117.701 173.346 117.802 173.348 117.907V194.466C173.348 194.572 173.309 194.673 173.241 194.748C173.173 194.823 173.081 194.865 172.985 194.865ZM122.474 194.068H172.623V118.305H122.474V194.068Z" fill="#2F282A"/>
<path d="M56.7385 194.466H107.604L107.604 78.2008H56.7385L56.7385 194.466Z" fill="#007ED2"/>
<path d="M107.604 194.865H56.7385C56.6423 194.865 56.5501 194.823 56.4822 194.748C56.4142 194.673 56.376 194.572 56.376 194.466V78.2008C56.376 78.0952 56.4142 77.9939 56.4822 77.9192C56.5501 77.8445 56.6423 77.8025 56.7385 77.8025H107.604C107.701 77.8025 107.793 77.8445 107.861 77.9192C107.929 77.9939 107.967 78.0952 107.967 78.2008V194.466C107.967 194.519 107.958 194.57 107.939 194.619C107.921 194.667 107.894 194.711 107.861 194.748C107.827 194.785 107.787 194.814 107.743 194.834C107.699 194.854 107.652 194.865 107.604 194.865ZM57.101 194.068H107.242V78.5992H57.101V194.068Z" fill="#2F282A"/>
<path d="M200.028 108.57V118.942H193.082L200.028 123.388V135.752H234.704V108.57H200.028Z" fill="#AAA9E6"/>
<path d="M234.704 136.15H200.028C199.932 136.148 199.841 136.106 199.773 136.031C199.706 135.957 199.667 135.857 199.665 135.752V123.619L192.901 119.285C192.833 119.241 192.78 119.173 192.75 119.092C192.72 119.012 192.715 118.923 192.736 118.839C192.756 118.755 192.801 118.681 192.864 118.627C192.926 118.574 193.003 118.545 193.082 118.544H199.665V108.57C199.667 108.465 199.706 108.365 199.773 108.29C199.841 108.216 199.932 108.173 200.028 108.171H234.704C234.8 108.171 234.893 108.213 234.961 108.288C235.029 108.363 235.067 108.464 235.067 108.57V135.752C235.067 135.858 235.029 135.959 234.961 136.034C234.893 136.108 234.8 136.15 234.704 136.15ZM200.39 135.354H234.342V108.968H200.39V118.942C200.39 119.048 200.352 119.149 200.284 119.224C200.216 119.299 200.124 119.341 200.028 119.341H194.423L200.223 123.045C200.278 123.08 200.324 123.13 200.355 123.19C200.387 123.25 200.404 123.318 200.405 123.388L200.39 135.354Z" fill="#2F282A"/>
<path d="M209.163 92.3576C209.257 92.0469 209.351 91.7362 209.453 91.4255C209.503 91.2661 209.561 91.1068 209.619 90.9475C209.652 90.8483 209.714 90.7641 209.796 90.7091C209.877 90.654 209.974 90.6313 210.069 90.6447C210.301 90.6447 210.526 90.7324 210.75 90.7722C210.873 90.796 210.996 90.8119 211.12 90.82C211.212 90.8256 211.302 90.7945 211.374 90.7324C211.635 90.4535 211.889 90.1667 212.135 89.8799C212.178 89.8263 212.208 89.7617 212.222 89.692C212.236 89.6224 212.233 89.55 212.215 89.4816C212.157 89.1789 212.092 88.8761 212.034 88.5734C212.016 88.4547 212.016 88.3336 212.034 88.2149C212.036 88.1709 212.046 88.1279 212.063 88.0883C212.081 88.0486 212.105 88.0131 212.135 87.9839C212.558 87.6806 213.02 87.4496 213.505 87.2987C213.577 87.2744 213.653 87.276 213.724 87.3033C213.794 87.3305 213.855 87.382 213.897 87.4501C214.071 87.713 214.252 87.9759 214.419 88.2468C214.474 88.3484 214.555 88.4307 214.651 88.4842C214.747 88.5378 214.855 88.5604 214.963 88.5495C215.26 88.5495 215.564 88.5495 215.869 88.5017C215.925 88.4985 215.979 88.4801 216.027 88.4481C216.076 88.4161 216.116 88.3716 216.144 88.3185C216.253 88.1432 216.355 87.9679 216.456 87.7927C216.558 87.6174 216.637 87.482 216.732 87.3386C216.775 87.2634 216.84 87.2066 216.916 87.1776C216.993 87.1487 217.076 87.1492 217.152 87.1792C217.573 87.3386 217.993 87.4979 218.406 87.6732C218.484 87.7082 218.549 87.7715 218.59 87.8527C218.631 87.9338 218.646 88.0279 218.631 88.1193C218.631 88.3742 218.559 88.6292 218.515 88.916C218.515 89.0355 218.515 89.155 218.479 89.2745C218.469 89.3519 218.476 89.4308 218.5 89.5044C218.524 89.5781 218.564 89.6441 218.617 89.6967C218.834 89.9277 219.059 90.1508 219.276 90.3898C219.336 90.4623 219.414 90.5149 219.5 90.5416C219.585 90.5684 219.676 90.5682 219.762 90.5412L220.661 90.3181C220.759 90.282 220.866 90.2893 220.96 90.3384C221.053 90.3874 221.125 90.4744 221.161 90.581C221.335 90.9714 221.502 91.3777 221.654 91.768C221.685 91.822 221.706 91.8823 221.715 91.9453C221.724 92.0083 221.722 92.0727 221.708 92.1346C221.693 92.1965 221.668 92.2545 221.632 92.3052C221.597 92.3558 221.553 92.398 221.502 92.4293C221.35 92.5567 221.183 92.6762 221.024 92.8037L220.69 93.0985C220.646 93.14 220.612 93.1914 220.588 93.2491C220.564 93.3069 220.552 93.3697 220.552 93.4331C220.552 93.7836 220.552 94.1262 220.552 94.4687C220.554 94.5634 220.579 94.6559 220.623 94.737C220.668 94.818 220.731 94.8849 220.806 94.9308L221.321 95.2654C221.422 95.3371 221.531 95.4088 221.625 95.4885C221.699 95.5382 221.754 95.6159 221.779 95.7068C221.805 95.7978 221.799 95.8958 221.763 95.9824C221.625 96.4046 221.488 96.7791 221.343 97.2252C221.319 97.2906 221.287 97.3522 221.248 97.4084C221.215 97.4751 221.164 97.5282 221.101 97.5598C221.038 97.5914 220.968 97.5998 220.9 97.5837L220.081 97.4403H220.023C219.909 97.4079 219.789 97.4134 219.678 97.4559C219.567 97.4985 219.47 97.5762 219.4 97.6793C219.247 97.8785 219.073 98.0617 218.907 98.2529C218.83 98.335 218.776 98.4386 218.749 98.5523C218.722 98.666 218.724 98.7856 218.754 98.8982C218.82 99.193 218.885 99.4798 218.943 99.7745C218.964 99.8312 218.975 99.8923 218.973 99.9537C218.971 100.015 218.957 100.075 218.933 100.131C218.908 100.186 218.873 100.234 218.829 100.273C218.786 100.312 218.736 100.34 218.682 100.356C218.319 100.547 217.957 100.731 217.565 100.906C217.481 100.956 217.382 100.97 217.289 100.943C217.196 100.917 217.116 100.852 217.065 100.762C216.92 100.563 216.79 100.348 216.652 100.141C216.362 99.6869 216.289 99.6471 215.782 99.6789H215.195C215.1 99.6791 215.008 99.7063 214.927 99.7581C214.845 99.8098 214.778 99.8842 214.731 99.9737C214.615 100.189 214.499 100.412 214.375 100.619C214.308 100.729 214.233 100.833 214.151 100.93C214.114 100.979 214.064 101.015 214.008 101.031C213.952 101.046 213.892 101.042 213.839 101.017L212.65 100.531C212.597 100.504 212.546 100.472 212.498 100.436C212.435 100.399 212.385 100.342 212.355 100.271C212.325 100.201 212.316 100.122 212.331 100.045L212.461 99.1611C212.469 99.071 212.469 98.9803 212.461 98.8902C212.468 98.8167 212.459 98.7424 212.435 98.6733C212.411 98.6041 212.373 98.5421 212.324 98.4919L211.686 97.8307C211.624 97.7658 211.548 97.7205 211.465 97.6994C211.382 97.6784 211.295 97.6824 211.214 97.7112L210.417 97.9103C210.069 97.982 209.96 97.9103 209.808 97.5757C209.656 97.2411 209.489 96.7791 209.344 96.3887C209.32 96.3434 209.304 96.2933 209.298 96.2412C209.292 96.1891 209.295 96.1362 209.308 96.0856C209.321 96.0351 209.343 95.9879 209.373 95.9468C209.402 95.9058 209.439 95.8719 209.482 95.847C209.699 95.6717 209.909 95.4964 210.134 95.3371C210.244 95.2711 210.333 95.1706 210.389 95.0484C210.446 94.9262 210.468 94.7881 210.453 94.652C210.453 94.3413 210.453 94.0306 210.41 93.7199C210.408 93.6546 210.392 93.5906 210.363 93.5337C210.334 93.4767 210.293 93.4285 210.243 93.3932L209.518 92.8993C209.35 92.8153 209.218 92.6643 209.148 92.4771L209.163 92.3576ZM218.145 94.0863C218.146 93.6976 218.077 93.3125 217.942 92.9534C217.806 92.5942 217.607 92.2681 217.357 91.994C217.106 91.7199 216.808 91.5031 216.48 91.3563C216.153 91.2095 215.802 91.1355 215.448 91.1387C214.745 91.1612 214.078 91.4813 213.585 92.0321C213.091 92.5829 212.811 93.3217 212.802 94.0943C212.808 94.8685 213.09 95.6094 213.587 96.1577C214.085 96.7059 214.758 97.0177 215.463 97.026C215.816 97.0314 216.166 96.959 216.493 96.8133C216.821 96.6676 217.118 96.4513 217.368 96.1774C217.618 95.9035 217.815 95.5773 217.949 95.2182C218.082 94.8591 218.149 94.4742 218.145 94.0863Z" fill="#AAA9E6"/>
<path d="M213.933 101.424C213.856 101.423 213.78 101.406 213.708 101.376L212.519 100.89C212.447 100.856 212.379 100.813 212.316 100.762C212.193 100.682 212.095 100.564 212.033 100.422C211.971 100.28 211.948 100.121 211.968 99.9658L212.099 99.0735C212.106 98.9993 212.106 98.9246 212.099 98.8504C212.099 98.7867 212.099 98.7708 212.099 98.7628L211.454 98.1016C211.433 98.0865 211.409 98.0784 211.385 98.0784C211.36 98.0784 211.336 98.0865 211.316 98.1016L210.736 98.2529L210.518 98.3087C210.417 98.3504 210.309 98.3693 210.201 98.3646C210.093 98.3598 209.987 98.3313 209.889 98.2809C209.791 98.2304 209.703 98.1589 209.631 98.0707C209.558 97.9824 209.503 97.8792 209.467 97.767C209.293 97.3686 209.141 96.9703 208.989 96.556C208.913 96.3813 208.898 96.1823 208.946 95.9961C208.994 95.8099 209.102 95.6493 209.25 95.5443C209.467 95.3637 209.692 95.1884 209.924 95.0185C209.977 94.9888 210.021 94.9412 210.049 94.8825C210.076 94.8238 210.086 94.757 210.076 94.6918C210.076 94.4927 210.076 94.2935 210.076 94.0864V93.7597L209.351 93.2499C209.113 93.1164 208.928 92.8928 208.829 92.6205C208.826 92.5781 208.826 92.5354 208.829 92.493V92.3815C208.821 92.3394 208.821 92.2961 208.829 92.254L208.902 91.9991L209.119 91.314C209.17 91.1467 209.235 90.9794 209.293 90.82C209.355 90.6407 209.471 90.4896 209.621 90.3913C209.771 90.293 209.946 90.2532 210.12 90.2783C210.272 90.2783 210.431 90.3261 210.591 90.358L210.917 90.4217C210.985 90.426 211.052 90.426 211.12 90.4217C211.386 90.1703 211.64 89.9045 211.881 89.625L211.787 89.1869C211.751 89.0116 211.715 88.8443 211.686 88.669C211.652 88.5126 211.639 88.3515 211.649 88.191C211.656 88.0863 211.685 87.9847 211.733 87.8937C211.78 87.8027 211.846 87.7246 211.925 87.6652C212.371 87.3402 212.86 87.093 213.375 86.9323C213.516 86.8829 213.669 86.8858 213.809 86.9404C213.949 86.9951 214.069 87.0985 214.151 87.235L214.332 87.5059L214.687 88.0317C214.76 88.1512 214.803 88.1671 214.897 88.1592H215.506H215.818C215.869 88.0476 215.934 87.9441 215.992 87.8325L216.173 87.5298L216.405 87.1554C216.496 87.0147 216.625 86.91 216.774 86.8568C216.923 86.8037 217.084 86.805 217.232 86.8606C217.66 87.0199 218.08 87.1793 218.501 87.3625C218.653 87.4272 218.781 87.5466 218.864 87.7014C218.947 87.8561 218.98 88.0371 218.957 88.2149C218.957 88.3982 218.907 88.5734 218.878 88.7567L218.841 89.0036C218.841 89.1072 218.841 89.2187 218.798 89.3303C218.786 89.3636 218.786 89.4005 218.798 89.4338L218.95 89.5852C219.124 89.7605 219.298 89.9437 219.465 90.1349C219.508 90.1827 219.537 90.1986 219.624 90.1349L220.516 89.9118C220.694 89.8473 220.888 89.8611 221.057 89.9502C221.226 90.0393 221.357 90.1969 221.422 90.3898C221.596 90.7882 221.763 91.1865 221.923 91.5928C222.018 91.7825 222.044 92.005 221.996 92.2152C221.947 92.4254 221.828 92.6073 221.662 92.7241L221.364 92.9631L221.176 93.1065L220.864 93.3773V93.6562C220.864 93.9111 220.864 94.174 220.864 94.4528C220.864 94.4805 220.87 94.5078 220.883 94.5317C220.896 94.5556 220.914 94.5751 220.937 94.5883L221.154 94.7237L221.459 94.9229C221.577 95.0005 221.69 95.0856 221.799 95.1778C221.933 95.2814 222.03 95.4313 222.076 95.6034C222.122 95.7754 222.114 95.9595 222.053 96.1258C221.915 96.5401 221.778 96.9225 221.633 97.3686C221.599 97.4554 221.558 97.5381 221.509 97.6156C221.434 97.7479 221.326 97.8532 221.197 97.9183C221.068 97.9834 220.925 98.0056 220.784 97.9821L219.965 97.8307H219.885C219.836 97.8136 219.782 97.8152 219.734 97.8355C219.685 97.8557 219.644 97.8933 219.617 97.9422C219.501 98.0856 219.378 98.229 219.255 98.3645L219.11 98.5238C219.077 98.5594 219.053 98.6041 219.042 98.6532C219.03 98.7024 219.031 98.754 219.044 98.8026C219.117 99.0974 219.182 99.3922 219.24 99.6949C219.272 99.7948 219.285 99.9006 219.279 100.006C219.274 100.112 219.249 100.215 219.206 100.31C219.164 100.405 219.104 100.49 219.032 100.559C218.959 100.629 218.875 100.681 218.783 100.715C218.406 100.914 218.058 101.097 217.652 101.272C217.495 101.36 217.314 101.382 217.143 101.333C216.972 101.285 216.823 101.17 216.724 101.009C216.601 100.842 216.485 100.659 216.369 100.484L216.297 100.372C216.094 100.053 216.094 100.053 215.746 100.077H215.158C215.123 100.076 215.087 100.086 215.057 100.105C215.026 100.125 215.001 100.154 214.984 100.189L214.868 100.404L214.622 100.85C214.54 100.979 214.451 101.102 214.354 101.217C214.24 101.338 214.091 101.411 213.933 101.424ZM211.381 97.273C211.595 97.2751 211.799 97.3662 211.954 97.528L212.592 98.1812C212.682 98.2709 212.752 98.3824 212.796 98.5068C212.84 98.6313 212.857 98.7653 212.846 98.8982C212.846 99.0018 212.846 99.1054 212.846 99.2089L212.715 100.093L212.809 100.141L213.94 100.611C214 100.542 214.053 100.468 214.1 100.388L214.332 99.9737L214.455 99.7507C214.529 99.6088 214.634 99.4898 214.76 99.4049C214.887 99.3199 215.032 99.2716 215.18 99.2647H215.775C216.007 99.2081 216.251 99.2394 216.465 99.3537C216.679 99.4679 216.853 99.6583 216.956 99.8941L217.029 100.006C217.138 100.173 217.246 100.34 217.362 100.5H217.428C217.805 100.332 218.153 100.149 218.537 99.9578L218.609 99.91C218.605 99.8783 218.605 99.8461 218.609 99.8144C218.551 99.5276 218.493 99.2408 218.428 98.962C218.38 98.7829 218.377 98.5928 218.419 98.4119C218.461 98.231 218.547 98.066 218.667 97.9343L218.82 97.759C218.928 97.6395 219.044 97.52 219.146 97.3846C219.258 97.2245 219.411 97.1044 219.585 97.0392C219.759 96.974 219.947 96.9667 220.125 97.0181L220.98 97.1695C220.98 97.1217 221.024 97.0818 221.024 97.0659C221.169 96.6516 221.306 96.2692 221.444 95.8231C221.347 95.7345 221.239 95.6595 221.125 95.6L220.618 95.2734C220.49 95.1918 220.384 95.0757 220.309 94.9363C220.234 94.7968 220.193 94.6386 220.19 94.4767C220.19 94.2059 220.19 93.943 220.19 93.6801V93.4411C220.189 93.3173 220.212 93.1948 220.258 93.0819C220.305 92.9691 220.373 92.8688 220.458 92.7878C220.574 92.6763 220.69 92.5727 220.806 92.4771L221.016 92.3178C221.103 92.2461 221.19 92.1823 221.277 92.1027C221.307 92.0798 221.334 92.0531 221.357 92.023C221.362 91.9887 221.362 91.9538 221.357 91.9194C221.205 91.5211 221.038 91.1228 220.871 90.7483L220.777 90.7005L219.878 90.9236C219.731 90.9639 219.578 90.9608 219.433 90.9146C219.287 90.8685 219.156 90.7808 219.052 90.6607C218.892 90.4775 218.718 90.3022 218.551 90.1349L218.406 89.9756C218.315 89.8822 218.244 89.7667 218.2 89.6381C218.156 89.5094 218.14 89.3713 218.153 89.2347C218.159 89.1037 218.174 88.9733 218.196 88.8443L218.24 88.5814C218.24 88.4221 218.29 88.2627 218.305 88.1034C217.899 87.8963 217.486 87.7369 217.072 87.5776C216.993 87.7051 216.92 87.8166 216.855 87.9361L216.681 88.2309L216.478 88.5655C216.419 88.6713 216.337 88.7595 216.24 88.8221C216.142 88.8847 216.032 88.9197 215.92 88.924H215.601H215.021C214.851 88.9436 214.68 88.9098 214.527 88.8266C214.374 88.7434 214.246 88.6141 214.158 88.4539C214.049 88.2787 213.94 88.1114 213.824 87.952L213.636 87.6732C213.207 87.8007 212.799 87.9995 212.425 88.2627C212.419 88.3343 212.419 88.4063 212.425 88.4778C212.425 88.6451 212.49 88.8124 212.527 88.9797L212.606 89.386C212.638 89.5162 212.64 89.6531 212.611 89.7841C212.582 89.9151 212.523 90.0358 212.44 90.1349C212.186 90.4297 211.925 90.7244 211.664 91.0033C211.526 91.1369 211.347 91.2081 211.164 91.2024C211.048 91.2138 210.931 91.2138 210.816 91.2024L210.489 91.1387L210.069 91.067C210.069 91.067 210.018 91.067 209.989 91.1307C209.96 91.1945 209.88 91.4255 209.83 91.5848L209.619 92.254L209.525 92.4134C209.583 92.4766 209.649 92.5303 209.721 92.5727L210.446 93.0666C210.545 93.1364 210.627 93.2316 210.685 93.344C210.743 93.4564 210.776 93.5827 210.779 93.7119V94.0465C210.779 94.2457 210.779 94.4369 210.779 94.6361C210.798 94.8429 210.762 95.0513 210.676 95.2363C210.59 95.4213 210.457 95.5753 210.294 95.6797C210.076 95.839 209.873 95.9984 209.67 96.1736C209.619 96.1736 209.612 96.2294 209.612 96.2294C209.786 96.6437 209.938 97.0261 210.098 97.4164C210.118 97.4641 210.142 97.5095 210.17 97.5519H210.315L210.555 97.4881L211.12 97.3447C211.203 97.3063 211.291 97.2822 211.381 97.273ZM215.47 97.4244C214.87 97.4249 214.284 97.2291 213.785 96.8621C213.287 96.4951 212.899 95.9735 212.671 95.3635C212.443 94.7536 212.386 94.0829 212.506 93.437C212.626 92.791 212.918 92.199 213.346 91.7362C213.62 91.4251 213.948 91.1769 214.31 91.006C214.672 90.8351 215.061 90.7448 215.456 90.7404C215.857 90.7361 216.254 90.8194 216.626 90.9854C216.997 91.1514 217.335 91.3967 217.62 91.7072C217.904 92.0177 218.13 92.3871 218.284 92.7942C218.437 93.2012 218.516 93.6377 218.515 94.0784C218.526 94.5022 218.46 94.9242 218.32 95.3195C218.181 95.7149 217.971 96.0757 217.703 96.3808C217.416 96.7136 217.069 96.978 216.685 97.1576C216.301 97.3371 215.888 97.4279 215.47 97.4244ZM215.434 91.537C214.833 91.5666 214.266 91.8523 213.853 92.3337C213.629 92.564 213.45 92.8413 213.325 93.1492C213.201 93.4571 213.134 93.7893 213.128 94.1262C213.13 94.7961 213.373 95.438 213.803 95.9125C214.234 96.3869 214.817 96.6554 215.427 96.6596C215.744 96.6653 216.06 96.5972 216.352 96.46C216.644 96.3227 216.907 96.1193 217.123 95.8629C217.324 95.6364 217.482 95.3684 217.587 95.0744C217.693 94.7804 217.745 94.4662 217.739 94.1501C217.74 93.8137 217.68 93.4804 217.563 93.1696C217.446 92.8587 217.274 92.5766 217.057 92.3394C216.84 92.1023 216.582 91.9149 216.298 91.7881C216.015 91.6613 215.711 91.5976 215.405 91.6008L215.434 91.537Z" fill="#D1D3D4"/>
<path d="M117.689 63.2474L111.396 60.1324V44.8762H78.619V68.1628H111.396V63.2474H117.689Z" fill="#AAA9E6"/>
<path d="M111.396 68.5611H78.6191C78.523 68.5611 78.4307 68.5191 78.3628 68.4444C78.2948 68.3697 78.2566 68.2684 78.2566 68.1628V44.8682C78.2584 44.7632 78.2972 44.6631 78.3648 44.5888C78.4324 44.5146 78.5235 44.4719 78.6191 44.4699H111.396C111.492 44.4699 111.585 44.5119 111.653 44.5866C111.721 44.6613 111.759 44.7626 111.759 44.8682V59.8695L117.842 62.8809C117.938 62.9031 118.022 62.9663 118.076 63.0567C118.129 63.1471 118.148 63.2572 118.128 63.3629C118.108 63.4685 118.05 63.561 117.968 63.62C117.886 63.679 117.785 63.6997 117.689 63.6775H111.759V68.1946C111.752 68.2947 111.71 68.388 111.643 68.4559C111.576 68.5239 111.488 68.5614 111.396 68.5611ZM78.9816 67.7644H111.034V63.2473C111.034 63.1417 111.072 63.0404 111.14 62.9657C111.208 62.891 111.3 62.849 111.396 62.849H116L111.251 60.459C111.188 60.4285 111.133 60.3784 111.095 60.3149C111.056 60.2513 111.035 60.1769 111.034 60.1005V45.2666H78.9816V67.7644Z" fill="#2F282A"/>
<path d="M95.5478 51.1619L100.434 56.5633C100.459 56.5925 100.49 56.6155 100.523 56.6306C100.557 56.6457 100.594 56.6527 100.63 56.6509H108.127C108.096 57.9336 107.784 59.1891 107.217 60.3107C106.65 61.4323 105.845 62.3869 104.87 63.0932C103.895 63.7995 102.78 64.2366 101.618 64.3674C100.456 64.4981 99.2833 64.3187 98.1984 63.8443C97.1135 63.3699 96.149 62.6146 95.3868 61.6426C94.6246 60.6706 94.0873 59.5108 93.8206 58.2616C93.554 57.0125 93.5658 55.711 93.8552 54.468C94.1445 53.225 94.7028 52.0771 95.4825 51.1221L95.5478 51.1619Z" fill="#007ED2"/>
<path d="M101.159 48.3975V56.0615H101.232H107.982C108.134 56.0615 108.134 56.0615 108.127 55.8942C108.021 53.9839 107.294 52.1791 106.077 50.8098C104.86 49.4406 103.235 48.5984 101.5 48.4374L101.159 48.3975Z" fill="#D1D3D4"/>
<path d="M100.645 55.9579V48.4055C99.833 48.4515 99.033 48.637 98.2738 48.9552C97.3647 49.3464 96.5363 49.9343 95.8378 50.6839L100.645 55.9579Z" fill="#D1D3D4"/>
<path d="M90.5598 52.4526H82.1716C82.0754 52.4526 81.9832 52.4106 81.9153 52.3359C81.8473 52.2612 81.8091 52.1599 81.8091 52.0542C81.8091 51.9486 81.8473 51.8473 81.9153 51.7726C81.9832 51.6979 82.0754 51.6559 82.1716 51.6559H90.5598C90.656 51.6559 90.7482 51.6979 90.8162 51.7726C90.8841 51.8473 90.9223 51.9486 90.9223 52.0542C90.9223 52.1599 90.8841 52.2612 90.8162 52.3359C90.7482 52.4106 90.656 52.4526 90.5598 52.4526Z" fill="#D1D3D4"/>
<path d="M90.5598 56.3323H82.1716C82.0754 56.3323 81.9832 56.2903 81.9153 56.2156C81.8473 56.1409 81.8091 56.0396 81.8091 55.934C81.8091 55.8283 81.8473 55.727 81.9153 55.6523C81.9832 55.5776 82.0754 55.5356 82.1716 55.5356H90.5598C90.656 55.5356 90.7482 55.5776 90.8162 55.6523C90.8841 55.727 90.9223 55.8283 90.9223 55.934C90.9223 56.0396 90.8841 56.1409 90.8162 56.2156C90.7482 56.2903 90.656 56.3323 90.5598 56.3323Z" fill="#D1D3D4"/>
<path d="M87.725 60.2121H82.2077C82.1116 60.2121 82.0194 60.1701 81.9514 60.0954C81.8834 60.0207 81.8452 59.9194 81.8452 59.8137C81.8452 59.7081 81.8834 59.6068 81.9514 59.5321C82.0194 59.4574 82.1116 59.4154 82.2077 59.4154H87.725C87.8211 59.4154 87.9133 59.4574 87.9813 59.5321C88.0493 59.6068 88.0875 59.7081 88.0875 59.8137C88.0875 59.9194 88.0493 60.0207 87.9813 60.0954C87.9133 60.1701 87.8211 60.2121 87.725 60.2121Z" fill="#D1D3D4"/>
<path d="M209.982 119.978H207.292V132.032H209.982V119.978Z" fill="#007ED2"/>
<path d="M214.941 124.957H212.251V132.032H214.941V124.957Z" fill="#007ED2"/>
<path d="M219.9 121.715H217.21V132.032H219.9V121.715Z" fill="#007ED2"/>
<path d="M224.866 127.602H222.176V132.032H224.866V127.602Z" fill="#007ED2"/>
<path d="M229.825 121.715H227.135V132.032H229.825V121.715Z" fill="#007ED2"/>
<path d="M229.76 112.673H225.207C225.116 112.67 225.029 112.629 224.965 112.558C224.902 112.486 224.866 112.39 224.866 112.29C224.865 112.24 224.873 112.191 224.89 112.144C224.907 112.098 224.932 112.056 224.963 112.02C224.995 111.985 225.033 111.956 225.075 111.937C225.117 111.918 225.161 111.908 225.207 111.908H229.76C229.852 111.908 229.941 111.948 230.006 112.02C230.071 112.091 230.108 112.189 230.108 112.29C230.106 112.391 230.069 112.487 230.004 112.558C229.939 112.63 229.852 112.671 229.76 112.673Z" fill="#D1D3D4"/>
<path d="M228.179 114.529H225.207C225.116 114.527 225.029 114.485 224.965 114.414C224.902 114.343 224.866 114.246 224.866 114.146C224.865 114.097 224.873 114.047 224.89 114.001C224.907 113.954 224.932 113.912 224.963 113.876C224.995 113.841 225.033 113.813 225.075 113.793C225.117 113.774 225.161 113.764 225.207 113.764H228.179C228.272 113.764 228.36 113.804 228.425 113.876C228.491 113.948 228.527 114.045 228.527 114.146C228.525 114.247 228.488 114.343 228.423 114.415C228.358 114.486 228.271 114.527 228.179 114.529Z" fill="#D1D3D4"/>
<path d="M223.851 122.145C222.321 122.145 221.038 120.336 220.001 118.887C219.457 118.09 218.783 117.174 218.464 117.174C217.851 117.31 217.269 117.581 216.753 117.97C215.803 118.576 214.738 119.261 213.672 119.197C211.78 119.086 208.445 114.824 208.075 114.338C208.045 114.3 208.022 114.257 208.008 114.209C207.993 114.162 207.988 114.112 207.991 114.062C207.994 114.013 208.007 113.964 208.027 113.92C208.048 113.875 208.077 113.836 208.111 113.804C208.183 113.74 208.274 113.709 208.367 113.718C208.459 113.727 208.544 113.775 208.604 113.852C209.561 115.094 212.36 118.353 213.679 118.44C214.65 118.326 215.577 117.936 216.369 117.309C216.978 116.838 217.673 116.52 218.406 116.377C219.037 116.377 219.704 117.253 220.516 118.385C221.473 119.731 222.691 121.412 223.88 121.348C224.924 121.293 225.417 120.297 225.997 119.142C226.577 117.986 227.171 116.752 228.411 116.528C228.501 116.512 228.594 116.534 228.669 116.59C228.745 116.647 228.798 116.733 228.817 116.831C228.834 116.93 228.815 117.033 228.763 117.117C228.712 117.2 228.632 117.258 228.542 117.277C227.621 117.469 227.128 118.456 226.606 119.508C226.011 120.695 225.344 122.033 223.916 122.105L223.851 122.145Z" fill="#D1D3D4"/>
<path d="M232.123 132.414H205.117C205.021 132.414 204.929 132.372 204.861 132.297C204.793 132.223 204.755 132.121 204.755 132.016C204.755 131.91 204.793 131.809 204.861 131.734C204.929 131.659 205.021 131.617 205.117 131.617H232.123C232.219 131.617 232.312 131.659 232.38 131.734C232.448 131.809 232.486 131.91 232.486 132.016C232.486 132.121 232.448 132.223 232.38 132.297C232.312 132.372 232.219 132.414 232.123 132.414Z" fill="#D1D3D4"/>
<path d="M208.401 114.983C208.244 114.983 208.089 114.931 207.958 114.835C207.827 114.739 207.725 114.602 207.664 114.442C207.604 114.282 207.588 114.106 207.619 113.936C207.65 113.766 207.726 113.609 207.837 113.487C207.949 113.364 208.091 113.281 208.246 113.247C208.4 113.213 208.561 113.231 208.706 113.297C208.852 113.363 208.977 113.476 209.064 113.62C209.152 113.764 209.199 113.933 209.199 114.107C209.2 114.222 209.18 114.336 209.14 114.443C209.1 114.55 209.042 114.647 208.967 114.729C208.893 114.81 208.805 114.875 208.708 114.918C208.61 114.962 208.506 114.984 208.401 114.983ZM208.401 113.995C208.374 113.995 208.349 114.007 208.329 114.028C208.31 114.049 208.3 114.077 208.3 114.107C208.3 114.234 208.51 114.234 208.51 114.107C208.508 114.076 208.496 114.048 208.476 114.027C208.456 114.006 208.429 113.995 208.401 113.995Z" fill="#D1D3D4"/>
<path d="M228.513 117.811C228.301 117.811 228.098 117.719 227.949 117.554C227.799 117.39 227.715 117.167 227.715 116.935C227.715 116.702 227.799 116.479 227.949 116.315C228.098 116.151 228.301 116.058 228.513 116.058C228.724 116.058 228.927 116.151 229.077 116.315C229.226 116.479 229.31 116.702 229.31 116.935C229.31 117.167 229.226 117.39 229.077 117.554C228.927 117.719 228.724 117.811 228.513 117.811ZM228.513 116.823C228.486 116.823 228.46 116.835 228.441 116.856C228.422 116.877 228.411 116.905 228.411 116.935C228.411 117.062 228.614 117.062 228.614 116.935C228.614 116.905 228.604 116.877 228.585 116.856C228.566 116.835 228.54 116.823 228.513 116.823Z" fill="#D1D3D4"/>
<path d="M219.197 81.5707V79.3082C218.472 79.0851 217.747 78.9178 217.022 78.6549C215.656 78.1767 214.479 77.2052 213.679 75.8984C213.021 74.7564 212.686 73.4258 212.715 72.0744H216.724C216.753 72.839 217.009 73.5722 217.453 74.162C217.897 74.7518 218.504 75.1658 219.182 75.3408V69.3498C218.377 69.0949 217.58 68.8559 216.782 68.5532C215.909 68.2805 215.108 67.7804 214.448 67.0953C213.766 66.3463 213.312 65.3831 213.15 64.3388C212.914 63.0573 213.002 61.7295 213.404 60.4989C213.696 59.6122 214.164 58.8079 214.773 58.1439C215.382 57.4799 216.118 56.9727 216.927 56.6589C217.594 56.4257 218.271 56.2342 218.957 56.0853L219.197 56.0296V53.0421H222.952V53.3289C222.952 54.1893 222.952 55.0417 222.952 55.8941C222.952 56.1092 223.017 56.173 223.199 56.2208C224.483 56.4888 225.687 57.1049 226.7 58.0133C227.765 58.9822 228.471 60.3447 228.687 61.8452C228.752 62.2515 228.781 62.6419 228.832 63.104H224.75C224.74 62.492 224.567 61.8967 224.252 61.3914C223.938 60.8861 223.496 60.4928 222.981 60.2599V65.8365L223.423 65.9481C224.525 66.1856 225.598 66.5626 226.621 67.0714C227.39 67.4391 228.054 68.0287 228.543 68.7777C229.032 69.5267 229.327 70.4071 229.397 71.3256C229.629 73.0349 229.25 74.7766 228.339 76.1852C227.588 77.3364 226.529 78.2001 225.308 78.6549C224.583 78.9417 223.771 79.1249 222.959 79.3719V81.5627L219.197 81.5707ZM222.967 70.2102V75.4125C223.575 75.3156 224.149 75.0404 224.627 74.6158C225.497 73.8191 225.809 71.8673 224.533 71.0149C224.024 70.7152 223.502 70.4466 222.967 70.2102ZM219.182 64.8885V59.8695C218.685 60.1035 218.201 60.3695 217.732 60.6662C217.465 60.8743 217.249 61.1523 217.104 61.4752C216.959 61.798 216.889 62.1554 216.901 62.5152C216.914 62.875 217.007 63.2257 217.174 63.5358C217.34 63.8458 217.575 64.1054 217.855 64.291C218.283 64.53 218.725 64.6813 219.182 64.8885Z" fill="#007ED2"/>
<path d="M222.952 81.969H219.197C219.101 81.967 219.01 81.9244 218.942 81.8501C218.875 81.7758 218.836 81.6757 218.834 81.5707V79.6189L218.406 79.4994C217.892 79.356 217.399 79.2126 216.906 79.0293C215.465 78.5194 214.221 77.4926 213.375 76.1135C212.675 74.9092 212.32 73.5026 212.353 72.0744C212.351 72.0215 212.358 71.9687 212.376 71.9194C212.393 71.87 212.42 71.8252 212.454 71.7878C212.488 71.7503 212.529 71.721 212.574 71.7018C212.619 71.6826 212.667 71.6738 212.715 71.6761H216.724C216.813 71.6734 216.899 71.707 216.966 71.7703C217.033 71.8337 217.076 71.9222 217.087 72.0187C217.102 72.6141 217.273 73.1921 217.581 73.6827C217.888 74.1733 218.319 74.5555 218.82 74.7831V69.6526L218.363 69.5092C217.797 69.3259 217.232 69.1507 216.674 68.9595C215.743 68.6541 214.893 68.1076 214.194 67.3661C213.452 66.5578 212.962 65.5119 212.795 64.3786C212.545 63.0254 212.638 61.6229 213.063 60.3236C213.375 59.3864 213.872 58.5363 214.517 57.8341C215.163 57.1318 215.941 56.5945 216.797 56.2606C217.27 56.0763 217.755 55.9299 218.247 55.8224L218.841 55.679V53.0421C218.841 52.9364 218.88 52.8351 218.948 52.7604C219.015 52.6857 219.108 52.6437 219.204 52.6437H222.959C223.055 52.6437 223.148 52.6857 223.216 52.7604C223.284 52.8351 223.322 52.9364 223.322 53.0421V54.0459C223.322 54.6434 223.322 55.2409 223.322 55.8384C224.653 56.1216 225.899 56.7651 226.947 57.7105C228.078 58.7367 228.828 60.1817 229.057 61.7735C229.107 62.0603 229.136 62.3551 229.165 62.6499L229.209 63.0562C229.214 63.1121 229.208 63.1686 229.192 63.222C229.177 63.2755 229.151 63.3247 229.117 63.3667C229.083 63.4086 229.041 63.4423 228.994 63.4656C228.948 63.489 228.897 63.5015 228.846 63.5023H224.75C224.658 63.5006 224.57 63.4613 224.503 63.3921C224.436 63.3229 224.395 63.2286 224.388 63.1279C224.384 62.6991 224.287 62.2774 224.106 61.8979C223.924 61.5183 223.663 61.1916 223.344 60.945V65.5258H223.496C224.626 65.7655 225.726 66.1534 226.773 66.681C227.599 67.075 228.312 67.7075 228.836 68.5113C229.361 69.3151 229.678 70.2601 229.753 71.2459C230.002 73.0542 229.599 74.8982 228.629 76.3844C227.838 77.6052 226.717 78.5199 225.424 78.9975C224.895 79.1966 224.366 79.348 223.8 79.5073L223.3 79.6667V81.5548C223.302 81.6071 223.295 81.6593 223.278 81.7085C223.262 81.7576 223.237 81.8027 223.204 81.8412C223.172 81.8797 223.133 81.9108 223.09 81.9327C223.046 81.9546 223 81.967 222.952 81.969ZM219.559 81.1724H222.575V79.3799C222.576 79.2926 222.602 79.208 222.65 79.1389C222.699 79.0698 222.767 79.0201 222.843 78.9975L223.568 78.7744C224.119 78.623 224.634 78.4717 225.142 78.2805C226.288 77.8534 227.285 77.0428 227.991 75.9622C228.857 74.6379 229.214 72.9924 228.984 71.3813C228.925 70.5291 228.655 69.7108 228.202 69.0156C227.75 68.3203 227.132 67.7747 226.418 67.4378C225.418 66.9412 224.37 66.5749 223.293 66.3464L222.974 66.2667L222.851 66.2269C222.771 66.2086 222.699 66.1606 222.647 66.0909C222.596 66.0213 222.568 65.9342 222.568 65.8445V60.2678C222.569 60.2004 222.585 60.1342 222.614 60.0747C222.643 60.0152 222.684 59.964 222.735 59.9253C222.788 59.8939 222.848 59.8775 222.909 59.8775C222.969 59.8775 223.029 59.8939 223.083 59.9253C223.605 60.1618 224.06 60.5471 224.402 61.0414C224.743 61.5357 224.959 62.1212 225.026 62.7375H228.375C228.375 62.4666 228.324 62.2037 228.281 61.9408C228.079 60.5335 227.417 59.2557 226.418 58.3479C225.449 57.4837 224.301 56.8954 223.075 56.635C222.919 56.6189 222.774 56.5352 222.674 56.4023C222.573 56.2694 222.525 56.0981 222.539 55.926C222.539 55.3046 222.539 54.6912 222.539 54.0777V53.4723H219.508V56.0614C219.51 56.1537 219.481 56.2435 219.428 56.3149C219.375 56.3864 219.301 56.4349 219.218 56.4518H219.131H218.994L218.348 56.6111C217.893 56.706 217.444 56.8391 217.007 57.0095C216.247 57.3052 215.555 57.7821 214.983 58.406C214.41 59.03 213.97 59.7855 213.694 60.6184C213.31 61.7791 213.23 63.0348 213.462 64.2432C213.602 65.2164 214.021 66.1151 214.658 66.8085C215.271 67.4513 216.018 67.9191 216.833 68.1708C217.384 68.3699 217.942 68.5452 218.508 68.7205L219.233 68.9435C219.308 68.9677 219.374 69.018 219.421 69.0869C219.468 69.1559 219.494 69.2397 219.494 69.3259V75.3169C219.494 75.3768 219.482 75.436 219.458 75.4899C219.434 75.5438 219.399 75.5909 219.356 75.6276C219.312 75.666 219.26 75.6925 219.204 75.705C219.149 75.7174 219.092 75.7155 219.037 75.6993C218.358 75.5162 217.744 75.1129 217.276 74.5418C216.808 73.9707 216.507 73.2581 216.413 72.4967H213.085C213.116 73.6287 213.427 74.7302 213.984 75.6833C214.741 76.9162 215.855 77.8316 217.145 78.2805C217.609 78.4557 218.08 78.5912 218.595 78.7346L219.32 78.9337C219.395 78.9579 219.461 79.0082 219.508 79.0771C219.555 79.1461 219.581 79.2299 219.581 79.3161L219.559 81.1724ZM222.967 75.8108C222.881 75.8121 222.798 75.7779 222.735 75.7152C222.695 75.6772 222.663 75.6307 222.641 75.5787C222.618 75.5266 222.606 75.47 222.604 75.4125V70.2102C222.605 70.1436 222.62 70.0782 222.65 70.0199C222.679 69.9617 222.721 69.9124 222.773 69.8768C222.824 69.8411 222.882 69.8201 222.943 69.8158C223.003 69.8114 223.064 69.8238 223.119 69.8517L223.626 70.0907C224.004 70.2511 224.37 70.4429 224.721 70.6643C225.018 70.8619 225.267 71.1367 225.445 71.4645C225.624 71.7923 225.726 72.1631 225.743 72.5445C225.774 72.9908 225.71 73.4389 225.556 73.8535C225.403 74.2682 225.164 74.6381 224.859 74.9345C224.333 75.4098 223.699 75.7183 223.025 75.8267L222.967 75.8108ZM223.329 70.8157V74.8867C223.719 74.7663 224.083 74.5573 224.395 74.2732C224.609 74.0587 224.776 73.7941 224.883 73.4989C224.991 73.2038 225.037 72.8857 225.018 72.5684C225.009 72.3149 224.942 72.0681 224.824 71.8499C224.707 71.6317 224.542 71.4488 224.344 71.3176C224.022 71.1198 223.688 70.9467 223.344 70.7998L223.329 70.8157ZM219.182 65.3267C219.137 65.3372 219.09 65.3372 219.044 65.3267L218.624 65.1434C218.305 65.008 218.008 64.8805 217.71 64.7212C217.377 64.5327 217.096 64.2504 216.895 63.9033C216.693 63.5562 216.58 63.1567 216.565 62.7455C216.533 62.2961 216.606 61.8451 216.779 61.4362C216.952 61.0273 217.218 60.6743 217.551 60.4112C217.868 60.1859 218.203 59.9913 218.551 59.8297L219.023 59.5827C219.078 59.5505 219.139 59.5348 219.202 59.5371C219.264 59.5395 219.325 59.5599 219.378 59.5962C219.431 59.6326 219.474 59.6836 219.503 59.7442C219.533 59.8047 219.547 59.8727 219.545 59.9412V64.9602C219.545 65.025 219.531 65.089 219.503 65.1462C219.475 65.2033 219.435 65.2517 219.385 65.2868C219.323 65.3228 219.252 65.3368 219.182 65.3267ZM218.82 60.5467C218.52 60.6881 218.232 60.8559 217.957 61.0486C217.734 61.2327 217.557 61.4747 217.44 61.7528C217.324 62.0309 217.272 62.3364 217.29 62.6419C217.295 62.9106 217.365 63.1731 217.492 63.4026C217.619 63.6321 217.8 63.8204 218.015 63.9484C218.267 64.0876 218.526 64.2126 218.791 64.3229L218.82 60.5467Z" fill="#2F282A"/>
<path d="M172.709 47.4574C172.709 47.4574 195.75 46.2067 200.412 62.9367V96.3967C200.412 96.3967 182.511 80.8776 172.709 86.04V47.4574Z" fill="#D1D3D4"/>
<path d="M200.412 96.7312C200.33 96.7301 200.251 96.6993 200.187 96.6436C200.006 96.4922 182.338 81.3396 172.869 86.3666C172.816 86.4002 172.756 86.4178 172.695 86.4178C172.634 86.4178 172.574 86.4002 172.521 86.3666C172.469 86.3298 172.425 86.2792 172.395 86.2194C172.364 86.1596 172.348 86.0925 172.347 86.024V47.4574C172.347 47.3545 172.383 47.2555 172.448 47.1812C172.513 47.107 172.601 47.0632 172.695 47.0591C172.927 47.0591 196.076 45.9836 200.76 62.7853C200.763 62.825 200.763 62.865 200.76 62.9048V96.3648C200.76 96.4394 200.741 96.5126 200.705 96.576C200.669 96.6394 200.618 96.6904 200.557 96.7233C200.509 96.735 200.46 96.7377 200.412 96.7312ZM177.379 84.5343C180.953 84.5343 185.31 85.9842 190.429 88.8681C193.798 90.8083 197.025 93.0351 200.078 95.5283V62.9366C195.83 47.8796 175.972 47.7522 173.101 47.8V85.3548C174.465 84.7795 175.918 84.5008 177.379 84.5343Z" fill="#2F282A"/>
<path d="M195.75 86.4861C195.666 86.4862 195.585 86.4545 195.521 86.3964C195.456 86.3383 195.411 86.2575 195.395 86.1675C194.068 79.0612 191.465 68.9754 189.841 68.8081C188.986 68.7125 188.514 70.991 188.101 72.9986C187.63 75.2691 187.188 77.4201 186.042 77.914C185.77 78.0144 185.48 78.0363 185.198 77.9777C184.916 77.9191 184.652 77.782 184.433 77.5794C180.858 74.9424 177.096 58.2682 176.936 57.5592C176.914 57.4557 176.93 57.3469 176.98 57.2561C177.03 57.1652 177.111 57.0996 177.204 57.0732C177.298 57.0493 177.396 57.0668 177.477 57.122C177.559 57.1773 177.617 57.2657 177.639 57.368C177.683 57.5353 181.489 74.4565 184.831 76.9182C184.959 77.0428 185.112 77.1318 185.277 77.1776C185.442 77.2234 185.615 77.2246 185.781 77.1811C186.564 76.8305 187.006 74.7034 187.391 72.8233C187.92 70.266 188.406 67.8521 189.906 68.0433C192.661 68.3301 195.554 83.0844 196.105 86.04C196.115 86.0913 196.115 86.1441 196.106 86.1955C196.097 86.2468 196.079 86.2957 196.052 86.3394C196.026 86.383 195.992 86.4206 195.953 86.4499C195.913 86.4791 195.869 86.4996 195.822 86.51L195.75 86.4861Z" fill="#2F282A"/>
<path d="M200.412 62.9366C200.412 62.9366 198.831 76.5756 191.103 79.4993V109.143C191.103 109.143 196.903 106.259 200.412 96.3966V62.9366Z" fill="#AAA9E6"/>
<path d="M191.103 109.518C191.007 109.518 190.914 109.476 190.846 109.401C190.778 109.326 190.74 109.225 190.74 109.119V79.4675C190.742 79.385 190.766 79.3049 190.81 79.238C190.854 79.1711 190.916 79.1206 190.987 79.0931C198.411 76.2808 200.035 62.9845 200.049 62.857C200.053 62.806 200.066 62.7563 200.087 62.7108C200.109 62.6654 200.138 62.6251 200.174 62.5925C200.21 62.5598 200.251 62.5353 200.296 62.5205C200.34 62.5058 200.387 62.501 200.433 62.5065C200.525 62.5144 200.611 62.5596 200.674 62.6333C200.737 62.7069 200.773 62.8037 200.774 62.9048V96.3648C200.781 96.4123 200.781 96.4607 200.774 96.5082C197.272 106.451 191.516 109.39 191.277 109.51C191.22 109.527 191.161 109.53 191.103 109.518ZM191.465 79.7463V108.426C192.915 107.462 197.265 104.108 200.049 96.2373V66.7607C198.998 71.0467 196.591 77.6352 191.465 79.7463Z" fill="#2F282A"/>
<path d="M187.347 54.97C187.277 54.9723 187.209 54.9499 187.152 54.9062C185.875 54.0246 184.441 53.4566 182.947 53.2412C182.899 53.2362 182.853 53.2209 182.81 53.1961C182.768 53.1714 182.731 53.1376 182.7 53.0969C182.67 53.0561 182.647 53.0092 182.633 52.9588C182.62 52.9083 182.615 52.8554 182.62 52.803C182.631 52.6995 182.678 52.6046 182.751 52.5378C182.824 52.4711 182.917 52.4377 183.012 52.4445C184.625 52.6711 186.175 53.2829 187.55 54.237C187.63 54.2969 187.686 54.3888 187.705 54.4931C187.724 54.5974 187.705 54.7056 187.652 54.7947C187.617 54.8483 187.572 54.8922 187.519 54.9227C187.466 54.9532 187.407 54.9694 187.347 54.97Z" fill="#2F282A"/>
<path d="M187.05 57.591C186.979 57.5894 186.909 57.5675 186.847 57.5273C186.022 56.93 185.11 56.4934 184.15 56.2367C184.102 56.2283 184.057 56.2097 184.016 56.182C183.975 56.1542 183.939 56.1178 183.911 56.0749C183.882 56.032 183.862 55.9834 183.851 55.9319C183.84 55.8804 183.838 55.8269 183.846 55.7746C183.853 55.7223 183.87 55.6721 183.895 55.627C183.921 55.5819 183.954 55.5427 183.993 55.5116C184.032 55.4805 184.076 55.4582 184.123 55.4459C184.17 55.4336 184.218 55.4316 184.266 55.44C185.326 55.712 186.335 56.1866 187.246 56.8421C187.326 56.8993 187.383 56.9892 187.404 57.0923C187.424 57.1953 187.406 57.3031 187.355 57.3918C187.323 57.4504 187.279 57.4993 187.225 57.5341C187.172 57.5689 187.112 57.5885 187.05 57.591Z" fill="#2F282A"/>
<path d="M160.95 85.9603L164.532 83.411C165.663 82.6143 166.946 80.2243 167.881 80.3359C168.816 80.4474 166.808 83.2756 166.808 83.2756C166.808 83.2756 170.593 80.8218 171.68 80.8856C172.768 80.9493 173.13 83.0206 172.811 83.6102C172.492 84.1997 169.367 85.3071 168.149 86.3587C166.513 87.5415 164.819 88.624 163.074 89.6011" fill="#AAA9E6"/>
<path d="M163.06 90.0233C162.98 90.022 162.902 89.9915 162.839 89.9366C162.777 89.8816 162.732 89.8053 162.713 89.7197C162.694 89.6341 162.701 89.5439 162.734 89.4633C162.766 89.3827 162.822 89.3163 162.893 89.2745C164.616 88.3158 166.288 87.2519 167.903 86.0878C168.778 85.4572 169.708 84.9235 170.68 84.4945C171.315 84.2246 171.92 83.8772 172.485 83.4588C172.595 82.946 172.528 82.4064 172.296 81.9451C172.243 81.7932 172.155 81.659 172.041 81.5557C171.927 81.4523 171.79 81.3834 171.644 81.3556C170.919 81.2998 168.396 82.7657 166.968 83.6898C166.895 83.7371 166.81 83.755 166.726 83.7404C166.643 83.7259 166.567 83.6798 166.511 83.6102C166.458 83.5379 166.429 83.448 166.429 83.3552C166.429 83.2625 166.458 83.1725 166.511 83.1003C167.048 82.4216 167.468 81.6415 167.751 80.7979C167.366 80.8537 166.728 81.5946 166.206 82.2717C165.782 82.8497 165.295 83.3687 164.756 83.8173L161.175 86.3666L160.783 85.6974C160.783 85.6974 163.234 83.9448 164.365 83.1481C164.859 82.7383 165.307 82.2649 165.699 81.738C166.475 80.79 167.214 79.8977 167.954 80.0092C168.066 80.0192 168.173 80.0632 168.264 80.1363C168.355 80.2095 168.426 80.3089 168.468 80.4235C168.533 81.0436 168.374 81.667 168.026 82.1602C169.237 81.4512 170.926 80.5669 171.651 80.5669H171.702C171.976 80.5962 172.238 80.7064 172.46 80.8859C172.682 81.0654 172.856 81.3075 172.963 81.5866C173.145 81.9346 173.252 82.3229 173.279 82.7227C173.305 83.1226 173.249 83.5239 173.116 83.897C172.898 84.2714 172.238 84.606 171.006 85.2274C170.086 85.6398 169.204 86.1494 168.374 86.749C166.725 87.9518 165.014 89.0477 163.248 90.0313C163.186 90.0486 163.121 90.0459 163.06 90.0233Z" fill="#2F282A"/>
<path d="M164.169 69.8278C165.349 69.1323 166.597 68.5845 167.888 68.1947C169.338 67.876 171.187 67.7645 170.854 67.0554C170.52 66.3464 167.084 66.8403 167.069 66.8483C168.642 66.6173 170.129 61.3433 170.6 60.0607C170.686 59.8563 170.728 59.6327 170.723 59.4074C170.715 59.2951 170.67 59.1899 170.596 59.1109C170.523 59.0319 170.427 58.9845 170.324 58.9772C170.183 59.0026 170.055 59.0816 169.962 59.2003C167.323 61.8691 164.959 64.6336 162.204 67.167C161.929 67.4697 164.169 69.8278 164.169 69.8278Z" fill="#AAA9E6"/>
<path d="M164.169 70.2262C164.075 70.2252 163.984 70.1854 163.915 70.1146C161.813 67.8919 161.813 67.4139 161.82 67.2546C161.828 67.1237 161.876 66.9998 161.958 66.9041C163.647 65.3107 165.22 63.6537 166.735 62.0285C167.7 61.0008 168.693 59.9412 169.715 58.9055C169.869 58.7227 170.077 58.6067 170.302 58.5789C170.501 58.5745 170.693 58.6553 170.838 58.8041C170.983 58.9529 171.069 59.1579 171.078 59.3756C171.101 59.6689 171.051 59.9634 170.933 60.228C170.868 60.4112 170.781 60.6662 170.679 60.9769C170.012 63.0084 169.23 65.1355 168.374 66.3225C169.679 66.2269 170.904 66.3225 171.18 66.8961C171.226 66.996 171.25 67.1066 171.25 67.2188C171.25 67.3309 171.226 67.4415 171.18 67.5414C170.94 68.0433 170.201 68.2026 168.91 68.4257L167.946 68.6089C166.689 68.9929 165.473 69.5272 164.321 70.2023C164.273 70.2232 164.221 70.2314 164.169 70.2262ZM162.596 67.3502C163.091 68.0629 163.639 68.729 164.234 69.3419C165.37 68.68 166.572 68.1641 167.816 67.8043C168.142 67.7326 168.483 67.6768 168.809 67.6131C169.38 67.5456 169.942 67.4066 170.484 67.1988C169.368 67.0064 168.231 67.0199 167.12 67.2387C167.024 67.2535 166.926 67.2257 166.849 67.1614C166.771 67.0972 166.72 67.0018 166.706 66.8961C166.693 66.7905 166.718 66.6833 166.777 66.5981C166.835 66.513 166.922 66.4568 167.018 66.442C168.149 66.2747 169.49 62.2117 169.998 60.6741C170.107 60.3555 170.194 60.0846 170.259 59.8775C170.325 59.7369 170.359 59.5814 170.36 59.4234C170.359 59.4062 170.355 59.3895 170.347 59.3743C170.34 59.3592 170.33 59.346 170.317 59.3357C170.285 59.3825 170.249 59.4252 170.208 59.4632C169.193 60.4909 168.2 61.5505 167.243 62.5702C165.764 64.1795 164.234 65.8126 162.596 67.3502Z" fill="#2F282A"/>
<path d="M139.635 71.3096C139.635 71.3096 151.67 74.8707 153.584 74.5998L161.805 66.6332L165.72 70.25C165.72 70.25 162.683 77.2926 159.145 81.1325C155.607 84.9724 135.459 83.1799 135.459 83.1799L139.635 71.3096Z" fill="#AAA9E6"/>
<path d="M145.363 84.0085C140.288 84.0085 135.814 83.6181 135.43 83.5863C135.374 83.5824 135.32 83.5637 135.272 83.5318C135.224 83.4999 135.184 83.4557 135.154 83.403C135.13 83.3473 135.117 83.2859 135.117 83.2238C135.117 83.1616 135.13 83.1003 135.154 83.0445L139.33 71.1662C139.363 71.0742 139.426 70.9988 139.506 70.9547C139.586 70.9105 139.679 70.9007 139.766 70.9272C142.956 71.8673 151.365 74.2175 153.359 74.2175H153.468L161.602 66.3464C161.667 66.2831 161.751 66.2482 161.838 66.2482C161.925 66.2482 162.009 66.2831 162.074 66.3464L165.989 69.9633C166.051 70.0201 166.093 70.0979 166.111 70.1845C166.128 70.2711 166.118 70.3614 166.083 70.4413C165.96 70.7281 162.98 77.6113 159.435 81.4353C157.485 83.5066 151.076 84.0085 145.363 84.0085ZM135.974 82.8533C139.055 83.0923 155.81 84.2316 158.891 80.8856C161.972 77.5396 164.691 71.7239 165.271 70.3855L161.813 67.1988L153.838 74.9345C153.783 74.9868 153.714 75.0201 153.642 75.0301C151.829 75.285 141.824 72.3931 139.867 71.8434L135.974 82.8533Z" fill="#2F282A"/>
<path d="M157.535 152.657C157.535 152.657 155.041 155.231 155.208 156.641C155.375 158.051 162.828 167.26 163.727 166.36C164.626 165.46 162.161 157.597 162.161 157.597L157.535 152.657Z" fill="#2F282A"/>
<path d="M163.56 166.798C163.438 166.795 163.318 166.768 163.205 166.718C161.334 165.97 155.027 158.059 154.853 156.664C154.664 155.127 157.028 152.641 157.289 152.37C157.356 152.3 157.446 152.26 157.539 152.26C157.632 152.26 157.722 152.3 157.789 152.37L162.4 157.262C162.442 157.304 162.474 157.356 162.494 157.413C163.255 159.867 164.93 165.667 163.944 166.631C163.84 166.739 163.703 166.798 163.56 166.798ZM157.535 153.207C156.636 154.195 155.469 155.772 155.57 156.561C155.744 157.979 162.342 165.794 163.509 166.001C163.806 165.372 163.067 161.691 161.842 157.764L157.535 153.207Z" fill="#2F282A"/>
<path d="M161.197 146.077L157.535 152.657L162.161 157.549L166.881 149.909L161.197 146.077Z" fill="#AAA9E6"/>
<path d="M162.161 157.947C162.066 157.948 161.975 157.908 161.907 157.836L157.281 152.96C157.223 152.896 157.186 152.813 157.176 152.724C157.165 152.635 157.182 152.544 157.223 152.466L160.848 145.886C160.872 145.84 160.905 145.8 160.943 145.768C160.982 145.737 161.026 145.714 161.073 145.702C161.12 145.69 161.168 145.688 161.215 145.696C161.263 145.704 161.308 145.723 161.349 145.75L167.033 149.582C167.075 149.61 167.111 149.647 167.14 149.691C167.169 149.735 167.189 149.784 167.199 149.837C167.21 149.89 167.21 149.946 167.2 149.999C167.19 150.053 167.17 150.103 167.141 150.148L162.458 157.74C162.428 157.787 162.39 157.827 162.344 157.856C162.299 157.885 162.249 157.902 162.197 157.907L162.161 157.947ZM157.999 152.594L162.103 156.927L166.366 150.028L161.291 146.619L157.999 152.594Z" fill="#2F282A"/>
<path d="M150.467 104.69C150.467 104.69 171.086 113.453 174.856 117.779C178.626 122.105 172.412 148.523 166.801 152.793L159.348 147.12C159.348 147.12 165.873 127.1 164.517 125.196C163.161 123.292 145.863 118.448 145.863 118.448L135.952 102.77L150.467 104.69Z" fill="#2F282A"/>
<path d="M166.801 153.191C166.728 153.192 166.657 153.166 166.598 153.119L159.145 147.447C159.08 147.397 159.031 147.324 159.006 147.241C158.981 147.158 158.982 147.068 159.007 146.985C162.19 137.25 165.01 126.527 164.234 125.475C163.277 124.153 152.671 120.799 145.776 118.863C145.69 118.839 145.616 118.783 145.566 118.703L135.655 103.049C135.615 102.986 135.593 102.912 135.591 102.835C135.589 102.759 135.607 102.683 135.643 102.617C135.679 102.552 135.731 102.499 135.794 102.465C135.856 102.432 135.926 102.419 135.996 102.427L150.496 104.323H150.583C151.431 104.682 171.325 113.198 175.095 117.508C176.545 119.102 176.472 123.22 176.19 126.375C175.312 135.983 171.02 150.06 166.989 153.127C166.934 153.169 166.868 153.191 166.801 153.191ZM159.783 146.969L166.794 152.307C170.614 149.048 174.638 135.577 175.494 126.288C175.878 122.073 175.559 119.118 174.602 118.05C171.013 113.955 151.438 105.526 150.387 105.072L136.713 103.288L146.095 118.098C148.393 118.743 163.43 123.037 164.807 124.949C165.046 125.292 165.967 127.977 159.783 146.969Z" fill="#2F282A"/>
<path d="M141.984 162.193L140.599 168.527L145.913 172.255L148.183 163.564L141.984 162.193Z" fill="#AAA9E6"/>
<path d="M145.913 172.646C145.845 172.647 145.777 172.628 145.718 172.59L140.403 168.893C140.341 168.848 140.292 168.782 140.265 168.705C140.238 168.628 140.233 168.543 140.251 168.463L141.636 162.13C141.645 162.08 141.664 162.032 141.69 161.99C141.717 161.948 141.75 161.912 141.79 161.885C141.829 161.857 141.873 161.839 141.918 161.83C141.964 161.822 142.011 161.823 142.056 161.835L148.255 163.205C148.305 163.214 148.353 163.235 148.394 163.266C148.436 163.298 148.47 163.34 148.495 163.388C148.52 163.436 148.536 163.489 148.542 163.544C148.549 163.598 148.545 163.654 148.531 163.707L146.262 172.391C146.248 172.451 146.221 172.506 146.183 172.552C146.145 172.598 146.097 172.633 146.044 172.654L145.913 172.646ZM141.012 168.344L145.703 171.626L147.726 163.866L142.259 162.655L141.012 168.344Z" fill="#2F282A"/>
<path d="M128.977 107.901C128.977 107.901 127.013 117.986 132.124 118.839C141.317 120.368 145.971 128.08 146.022 133.338C146.102 140.659 140.374 163.245 140.374 163.245L149.799 167.101C149.799 167.101 160.203 137.552 158.695 129.45C157.187 121.348 145.413 103.312 145.413 103.312L128.977 107.901Z" fill="#2F282A"/>
<path d="M149.799 167.499C149.756 167.507 149.712 167.507 149.669 167.499L140.244 163.643C140.16 163.607 140.092 163.539 140.051 163.45C140.011 163.362 140.002 163.26 140.026 163.165C140.084 162.942 145.739 140.548 145.667 133.362C145.58 125.268 137.504 120.161 132.066 119.253C131.532 119.173 131.02 118.969 130.563 118.656C130.106 118.343 129.714 117.928 129.412 117.437C127.411 114.25 128.572 108.108 128.622 107.877C128.637 107.804 128.669 107.737 128.717 107.683C128.764 107.629 128.824 107.592 128.89 107.574L145.326 102.985C145.397 102.965 145.471 102.969 145.54 102.996C145.608 103.023 145.668 103.072 145.71 103.136C146.189 103.877 157.543 121.34 159.051 129.426C160.559 137.513 150.561 166.073 150.133 167.3C150.1 167.364 150.052 167.417 149.992 167.453C149.933 167.488 149.867 167.504 149.799 167.499ZM140.809 163.006L149.589 166.599C150.771 163.173 159.739 136.939 158.34 129.53C156.941 122.121 146.609 105.845 145.29 103.766L129.34 108.227C129.151 109.374 128.441 114.385 130.065 116.991C130.31 117.394 130.631 117.734 131.006 117.988C131.381 118.243 131.802 118.405 132.24 118.464C141.948 120.058 146.392 128.152 146.45 133.354C146.45 140.213 141.556 160.011 140.809 163.006Z" fill="#2F282A"/>
<path d="M133.791 63.1199C129.028 61.7098 130.333 53.4324 131.268 49.5128C131.398 48.6679 131.771 47.8912 132.334 47.2981C132.625 47.0215 133.003 46.8829 133.386 46.9128C133.77 46.9427 134.127 47.1386 134.379 47.4574C134.27 46.358 135.249 45.4976 136.191 45.0674C137.979 44.2985 139.964 44.2985 141.752 45.0674C142.984 45.6171 144.101 46.5253 145.377 46.7882C146.653 47.0511 148.32 46.3182 148.451 44.8683C149.04 45.5369 149.478 46.3479 149.729 47.2362C149.981 48.1244 150.04 49.0651 149.901 49.9829C149.589 51.9825 148.451 52.8748 147.24 54.1335C146.029 55.3922 145.725 57.36 144.275 58.4036C141.614 60.2917 140.222 62.9367 136.865 63.3111C135.839 63.4525 134.797 63.3878 133.791 63.1199Z" fill="#AAA9E6"/>
<path d="M135.764 63.7732C135.069 63.7827 134.377 63.6917 133.705 63.5023C128.535 61.9807 130.029 53.1456 130.913 49.4172C131.063 48.4931 131.48 47.6466 132.102 47.0033C132.321 46.8136 132.573 46.6754 132.842 46.5972C133.112 46.5191 133.393 46.5028 133.668 46.5492C133.815 46.579 133.959 46.6271 134.096 46.6926C134.282 46.2352 134.553 45.8255 134.891 45.4894C135.23 45.1534 135.628 44.8984 136.061 44.7408C137.926 43.9409 139.996 43.9409 141.861 44.7408C142.325 44.9479 142.774 45.2029 143.202 45.4498C143.902 45.8948 144.657 46.2274 145.442 46.4377C145.798 46.5088 146.163 46.5017 146.517 46.4169C146.87 46.3321 147.205 46.1713 147.501 45.9438C147.664 45.8203 147.8 45.6608 147.903 45.4755C148.005 45.2902 148.071 45.0833 148.096 44.8683C148.103 44.7937 148.13 44.7229 148.172 44.6641C148.214 44.6052 148.271 44.5608 148.336 44.5358C148.4 44.5108 148.469 44.5063 148.536 44.5229C148.603 44.5394 148.664 44.5763 148.712 44.6293C149.344 45.3419 149.816 46.2075 150.089 47.1565C150.363 48.1056 150.43 49.1117 150.285 50.0944C149.988 52.0144 149.024 52.9624 147.907 54.0777L147.516 54.4761C147.024 55.0215 146.608 55.6444 146.283 56.3243C145.85 57.2717 145.216 58.0912 144.435 58.7143C143.648 59.2997 142.9 59.9439 142.194 60.6423C140.686 62.0683 139.294 63.4147 136.866 63.6855C136.5 63.7366 136.132 63.7659 135.764 63.7732ZM133.357 47.3061C133.068 47.3049 132.788 47.4085 132.559 47.6008C132.063 48.1496 131.734 48.8537 131.617 49.6164C130.79 53.1138 129.347 61.3911 133.886 62.7295C134.846 62.9845 135.841 63.0492 136.822 62.9207C138.997 62.6738 140.266 61.4628 141.752 60.0607C142.481 59.336 143.256 58.6703 144.072 58.069C144.77 57.5085 145.336 56.774 145.725 55.926C146.082 55.1761 146.542 54.491 147.088 53.8945L147.487 53.4962C148.545 52.4446 149.386 51.616 149.662 49.9749C149.76 49.2269 149.719 48.4647 149.54 47.7348C149.362 47.0048 149.051 46.3223 148.625 45.7287C148.465 46.0722 148.234 46.3696 147.951 46.597C147.574 46.8892 147.147 47.0959 146.697 47.2054C146.246 47.3148 145.78 47.3246 145.326 47.2344C144.475 47.027 143.656 46.6806 142.898 46.2067C142.484 45.9756 142.049 45.7287 141.622 45.5375C139.918 44.8025 138.025 44.8025 136.322 45.5375C135.474 45.9039 134.654 46.6448 134.741 47.4893C134.751 47.5791 134.733 47.6698 134.689 47.7465C134.646 47.8232 134.58 47.8814 134.502 47.9115C134.424 47.9399 134.34 47.9388 134.262 47.9085C134.185 47.8782 134.119 47.8204 134.074 47.7442C134.016 47.6475 133.939 47.5661 133.849 47.5055C133.758 47.445 133.657 47.4068 133.552 47.3937C133.49 47.3561 133.425 47.3266 133.357 47.3061Z" fill="#2F282A"/>
<path d="M145.537 58.9533C145.537 58.9533 146.943 62.849 146.378 63.4624C145.812 64.0759 144.493 63.2712 144.493 63.2712" fill="#AAA9E6"/>
<path d="M145.783 64.068C145.274 64.0304 144.779 63.8699 144.333 63.5979C144.291 63.5728 144.254 63.5389 144.224 63.4981C144.194 63.4573 144.172 63.4104 144.158 63.3601C144.145 63.3097 144.141 63.257 144.146 63.2049C144.151 63.1527 144.165 63.1022 144.188 63.0562C144.211 63.0102 144.242 62.9695 144.279 62.9366C144.316 62.9037 144.359 62.8791 144.405 62.8643C144.45 62.8495 144.498 62.8448 144.546 62.8504C144.593 62.8559 144.639 62.8717 144.681 62.8969C145.123 63.1677 145.892 63.4306 146.131 63.1518C146.37 62.873 145.877 60.9291 145.21 59.0729C145.192 59.0243 145.182 58.9722 145.182 58.9195C145.182 58.8668 145.192 58.8147 145.211 58.7663C145.23 58.7179 145.258 58.6743 145.293 58.638C145.327 58.6016 145.368 58.5734 145.413 58.555C145.458 58.5356 145.505 58.526 145.553 58.5267C145.6 58.5274 145.647 58.5385 145.691 58.5592C145.735 58.5799 145.774 58.6099 145.808 58.6475C145.841 58.685 145.867 58.7294 145.885 58.7781C146.436 60.3236 147.277 63.0243 146.61 63.7174C146.387 63.9498 146.09 64.0759 145.783 64.068Z" fill="#2F282A"/>
<path d="M145.964 54.3008C147.052 55.7826 146.196 58.1726 145.87 59.7898C145.421 62.0603 144.92 64.3229 144.377 66.5615C144.029 67.9875 140.628 67.2307 140.106 66.6651L139.512 71.5008C139.512 71.5008 138.207 73.9546 135.735 71.9231C133.262 69.8916 132.994 67.8202 132.994 67.8202L134.444 61.3035C134.444 61.3035 136.692 61.8373 138.577 59.2083C140.462 56.5793 141.281 52.0383 141.281 52.0383C141.281 52.0383 144.906 52.8588 145.964 54.3008Z" fill="#AAA9E6"/>
<path d="M137.598 73.126C136.835 73.0878 136.105 72.7774 135.517 72.2417C132.958 70.1385 132.617 67.9716 132.617 67.876C132.606 67.8262 132.606 67.7744 132.617 67.7246L134.125 61.1999C134.147 61.0997 134.205 61.0133 134.285 60.9595C134.365 60.9058 134.461 60.8891 134.553 60.9131C134.632 60.9131 136.604 61.3513 138.323 58.9613C140.135 56.4359 140.94 52.0144 140.954 51.9745C140.962 51.9227 140.98 51.8732 141.006 51.8293C141.032 51.7853 141.066 51.748 141.107 51.7196C141.146 51.6913 141.19 51.6718 141.236 51.6623C141.282 51.6527 141.329 51.6532 141.375 51.6638C141.527 51.6638 145.116 52.5083 146.247 54.0538C147.262 55.44 146.798 57.4237 146.421 59.0171C146.348 59.3198 146.283 59.6146 146.225 59.8854C145.776 62.1559 145.268 64.4344 144.724 66.673C144.655 66.9296 144.521 67.1594 144.337 67.3356C144.154 67.5118 143.928 67.6274 143.688 67.6689C142.581 67.8816 141.443 67.7576 140.396 67.3104L139.867 71.5646C139.86 71.6173 139.846 71.6685 139.823 71.7159C139.429 72.4056 138.804 72.8977 138.083 73.0862C137.923 73.1156 137.76 73.1289 137.598 73.126ZM133.4 67.8362C133.842 69.3824 134.756 70.7134 135.988 71.6044C136.257 71.8666 136.572 72.0638 136.914 72.1832C137.257 72.3026 137.618 72.3416 137.975 72.2975C138.47 72.155 138.904 71.8249 139.2 71.3654L139.787 66.5854C139.797 66.5124 139.826 66.4439 139.869 66.3876C139.913 66.3314 139.97 66.2895 140.034 66.2667C140.097 66.2426 140.166 66.2387 140.231 66.2557C140.297 66.2726 140.356 66.3096 140.403 66.3623C141.373 66.8885 142.469 67.0642 143.535 66.8642C143.833 66.7766 144.014 66.6332 144.065 66.442C144.601 64.2113 145.101 61.9408 145.558 59.6783C145.609 59.3995 145.681 59.1047 145.754 58.786C146.087 57.368 146.479 55.5994 145.718 54.5239C144.993 53.544 142.767 52.8031 141.621 52.5003C141.375 53.6874 140.541 57.1847 138.924 59.4313C138.463 60.1613 137.842 60.7523 137.119 61.1504C136.396 61.5484 135.593 61.7408 134.785 61.7098L133.4 67.8362Z" fill="#2F282A"/>
<path d="M144.652 64.8566C144.423 64.9595 144.176 65.0066 143.929 64.9949C143.681 64.9832 143.439 64.9129 143.219 64.7889C142.999 64.6648 142.805 64.4899 142.652 64.2761C142.499 64.0622 142.39 63.8146 142.332 63.5501" fill="#AAA9E6"/>
<path d="M143.942 65.3745C143.61 65.3798 143.282 65.2978 142.985 65.1355C142.731 64.9812 142.511 64.7691 142.338 64.5136C142.166 64.258 142.045 63.9648 141.984 63.6537C141.96 63.5523 141.972 63.4444 142.02 63.3534C142.068 63.2624 142.146 63.1957 142.238 63.1677C142.331 63.1406 142.43 63.1546 142.514 63.2067C142.598 63.2588 142.66 63.3448 142.687 63.4465C142.722 63.6502 142.796 63.8433 142.905 64.0125C143.014 64.1816 143.155 64.3229 143.318 64.4264C143.702 64.6045 144.132 64.6243 144.529 64.4822C144.62 64.4489 144.72 64.456 144.806 64.5022C144.893 64.5483 144.96 64.6297 144.993 64.7292C145.009 64.7778 145.016 64.8294 145.014 64.8811C145.011 64.9328 145 64.9834 144.98 65.0301C144.959 65.0768 144.931 65.1186 144.896 65.1531C144.861 65.1876 144.82 65.2141 144.775 65.2311C144.506 65.3249 144.224 65.3732 143.942 65.3745Z" fill="#2F282A"/>
<path d="M141.288 59.4632C141.341 58.883 141.246 58.2981 141.012 57.7743C140.88 57.3435 140.692 56.9357 140.454 56.5633C140.333 56.3801 140.177 56.2286 139.997 56.1198C139.816 56.0109 139.616 55.9475 139.41 55.934C139.229 55.9421 139.051 55.9924 138.888 56.0817C138.726 56.1709 138.583 56.2971 138.468 56.4518C138.236 56.7628 138.072 57.128 137.989 57.5193C137.796 58.3643 137.807 59.2502 138.022 60.0888C138.237 60.9275 138.648 61.6896 139.214 62.2993L139.12 62.132" fill="#AAA9E6"/>
<path d="M139.2 62.7216C139.106 62.7206 139.015 62.6808 138.946 62.61C138.334 61.9453 137.89 61.1165 137.659 60.2055C137.427 59.2945 137.416 58.3329 137.627 57.4158C137.724 56.9663 137.912 56.5468 138.178 56.1889C138.327 55.9912 138.513 55.8307 138.723 55.7181C138.933 55.6055 139.162 55.5433 139.396 55.5356C139.657 55.5496 139.913 55.6286 140.142 55.7666C140.372 55.9046 140.571 56.098 140.722 56.3323C140.984 56.7337 141.187 57.1771 141.324 57.6468C141.585 58.2407 141.688 58.9034 141.621 59.5588C141.603 59.6645 141.548 59.7578 141.467 59.8183C141.386 59.8788 141.286 59.9015 141.19 59.8815C141.094 59.8614 141.009 59.8002 140.954 59.7113C140.899 59.6224 140.878 59.5131 140.896 59.4074C140.935 58.8966 140.844 58.384 140.635 57.9256C140.517 57.5348 140.349 57.1645 140.135 56.8262C140.049 56.6895 139.935 56.5757 139.804 56.493C139.672 56.4103 139.525 56.3609 139.374 56.3482C139.245 56.3568 139.118 56.3953 139.003 56.4612C138.888 56.5271 138.787 56.6189 138.707 56.7306C138.51 56.9944 138.374 57.3057 138.308 57.6388C138.14 58.3601 138.134 59.1157 138.29 59.8402C138.447 60.5647 138.762 61.2365 139.207 61.7974C139.286 61.8272 139.353 61.8864 139.396 61.9647L139.483 62.132C139.516 62.192 139.534 62.2606 139.536 62.3308C139.537 62.4011 139.521 62.4704 139.49 62.5319C139.459 62.5934 139.414 62.6448 139.36 62.6809C139.305 62.717 139.242 62.7365 139.178 62.7375L139.2 62.7216Z" fill="#2F282A"/>
<path d="M140.106 66.6651C139.164 66.0735 138.397 65.1969 137.895 64.1396C137.895 64.1396 137.351 67.629 139.86 69.2542L140.106 66.6651Z" fill="#2F282A"/>
<path d="M139.86 69.6526C139.796 69.6549 139.732 69.6355 139.678 69.5968C136.981 67.8521 137.503 64.2273 137.54 64.0759C137.554 63.9904 137.593 63.9121 137.65 63.852C137.707 63.7919 137.78 63.7532 137.859 63.7413C137.938 63.7315 138.017 63.7503 138.085 63.795C138.153 63.8396 138.206 63.9075 138.236 63.9883C138.703 64.9631 139.415 65.7704 140.287 66.3145C140.348 66.3538 140.398 66.4114 140.43 66.4806C140.462 66.5497 140.476 66.6276 140.469 66.7049L140.222 69.31C140.215 69.3775 140.193 69.4421 140.158 69.4978C140.122 69.5534 140.075 69.5984 140.019 69.6287C139.968 69.6487 139.914 69.6568 139.86 69.6526ZM138.221 65.4541C138.249 66.0364 138.381 66.6068 138.612 67.132C138.842 67.6573 139.165 68.1268 139.562 68.5133L139.722 66.8403C139.165 66.458 138.66 65.9914 138.221 65.4541Z" fill="#2F282A"/>
<path d="M144.945 57.2117C145.097 56.786 145.097 56.3872 144.945 56.3211C144.792 56.255 144.544 56.5465 144.392 56.9723C144.239 57.398 144.239 57.7968 144.392 57.8629C144.545 57.929 144.792 57.6375 144.945 57.2117Z" fill="#2F282A"/>
<path d="M130.921 65.7728C130.921 65.7728 138.533 67.1988 141.071 72.1461C143.608 77.0934 144.195 94.6998 145.573 96.0461C146.95 97.3925 150.51 104.363 150.43 104.682C150.351 105.001 127.622 109.709 127.622 109.709C127.622 109.709 126.955 103.997 125.345 96.4843C123.736 88.9717 124.49 65.4223 130.921 65.7728Z" fill="#AAA9E6"/>
<path d="M127.658 110.115C127.583 110.116 127.509 110.091 127.448 110.044C127.408 110.012 127.374 109.971 127.349 109.925C127.324 109.878 127.309 109.826 127.303 109.773C127.303 109.717 126.578 103.981 125.026 96.5799C123.75 90.6129 123.808 72.5285 128.006 66.9917C128.342 66.4853 128.785 66.0758 129.296 65.7983C129.807 65.5209 130.372 65.3836 130.942 65.3984H130.986C131.305 65.4541 138.794 66.9041 141.419 71.947C142.869 74.7831 143.695 81.4193 144.391 87.2748C144.841 91.0271 145.348 95.2415 145.841 95.7753C147.03 96.9543 150.974 104.132 150.807 104.809C150.728 105.128 150.67 105.367 127.716 110.131L127.658 110.115ZM130.776 66.1711C130.345 66.1958 129.925 66.3286 129.548 66.5592C129.171 66.7898 128.847 67.1121 128.601 67.5016C124.823 72.4807 124.388 89.9357 125.766 96.3967C127.122 102.698 127.818 107.797 128.006 109.255C136.184 107.55 148.002 105.033 150.046 104.475C149.459 103.065 146.595 97.5757 145.399 96.3807C144.732 95.7115 144.34 92.6842 143.71 87.3943C143.05 81.8973 142.26 75.054 140.81 72.3533C138.424 67.7724 131.341 66.2906 130.906 66.203L130.776 66.1711Z" fill="#2F282A"/>
<path d="M140.839 71.6602L140.237 74.0661L141.121 74.4246L141.361 91.3936L144.58 94.5086L146.001 89.2267L141.817 74.4883L142.441 73.6837L140.839 71.6602Z" fill="#2F282A"/>
<path d="M136.38 73.6598C136.532 73.9307 143.499 90.2623 143.499 90.2623L161.726 83.4827L165.351 89.378C165.351 89.378 149.502 99.4479 143.601 100.746C137.699 102.045 127.187 78.0733 127.6 75.6833" fill="#AAA9E6"/>
<path d="M143.159 101.177C141.883 101.177 140.389 100.245 138.707 98.3963C133.4 92.5488 126.875 77.7387 127.274 75.5718C127.295 75.4693 127.351 75.3797 127.431 75.3217C127.51 75.2638 127.607 75.2421 127.702 75.2611C127.748 75.2716 127.793 75.292 127.832 75.3213C127.871 75.3506 127.905 75.3881 127.932 75.4317C127.958 75.4754 127.976 75.5243 127.985 75.5757C127.994 75.627 127.994 75.6799 127.984 75.7311C127.673 77.4201 133.784 91.8557 139.222 97.8546C140.962 99.7666 142.419 100.603 143.572 100.356C148.843 99.193 162.516 90.7005 164.836 89.2028L161.595 83.9209L143.637 90.5969C143.552 90.6282 143.46 90.6244 143.377 90.5863C143.294 90.5482 143.227 90.4783 143.188 90.3898C141.281 85.9125 136.286 74.2175 136.09 73.8271C136.044 73.7357 136.032 73.6284 136.056 73.5276C136.081 73.4267 136.139 73.34 136.22 73.2854C136.301 73.2317 136.398 73.215 136.49 73.2388C136.583 73.2626 136.663 73.3251 136.713 73.4128C136.858 73.6757 142.289 86.3905 143.71 89.7286L161.632 83.0684C161.707 83.0418 161.788 83.043 161.863 83.0718C161.937 83.1005 162.001 83.1553 162.045 83.2278L165.67 89.1151C165.697 89.1602 165.716 89.2111 165.725 89.2646C165.734 89.3181 165.732 89.373 165.721 89.4258C165.711 89.4789 165.691 89.529 165.662 89.573C165.633 89.6169 165.596 89.6537 165.554 89.6808C164.901 90.095 149.604 99.7984 143.731 101.097C143.544 101.146 143.352 101.173 143.159 101.177Z" fill="#2F282A"/>
<path d="M143.992 100.866C140.07 100.866 136.249 96.9384 132.617 89.1709C132.595 89.1245 132.581 89.0737 132.577 89.0214C132.573 88.9692 132.579 88.9166 132.594 88.8668C132.609 88.817 132.632 88.771 132.664 88.7315C132.695 88.692 132.734 88.6599 132.777 88.6371C132.861 88.5893 132.96 88.58 133.051 88.6113C133.142 88.6426 133.218 88.712 133.262 88.8044C136.924 96.6357 140.701 100.42 144.5 100.045C148.299 99.671 156.564 94.2058 156.644 94.1501C156.684 94.1174 156.73 94.0944 156.779 94.0824C156.828 94.0703 156.879 94.0696 156.928 94.0803C156.977 94.0909 157.024 94.1127 157.065 94.1442C157.106 94.1757 157.141 94.2162 157.167 94.2632C157.194 94.3103 157.211 94.3628 157.217 94.4174C157.224 94.472 157.22 94.5276 157.207 94.5806C157.193 94.6337 157.169 94.6829 157.137 94.7254C157.105 94.7678 157.065 94.8025 157.021 94.8272C156.68 95.0582 148.596 100.452 144.565 100.842L143.992 100.866Z" fill="#2F282A"/>
<path d="M140.599 168.527C140.599 168.527 138.591 174.024 138.729 174.55C138.867 175.075 146.03 188.013 147.233 184.468C148.437 180.923 145.914 172.247 145.914 172.247L140.599 168.527Z" fill="#2F282A"/>
<path d="M146.559 185.48H146.515C144.079 185.36 138.54 175.187 138.381 174.653C138.221 174.119 139.331 170.941 140.266 168.376C140.287 168.323 140.318 168.275 140.357 168.235C140.396 168.196 140.441 168.165 140.491 168.144C140.541 168.128 140.595 168.124 140.647 168.133C140.7 168.141 140.75 168.161 140.795 168.192L146.109 171.921C146.181 171.968 146.234 172.041 146.262 172.128C146.363 172.486 148.806 180.971 147.574 184.604C147.516 184.852 147.385 185.073 147.202 185.231C147.018 185.39 146.792 185.477 146.559 185.48ZM140.759 169.116C140.075 170.858 139.511 172.653 139.07 174.486C139.338 175.219 144.71 184.683 146.552 184.683C146.624 184.683 146.762 184.683 146.885 184.325C147.951 181.186 145.906 173.618 145.595 172.51L140.759 169.116Z" fill="#2F282A"/>
<path d="M155.23 120.767C155.167 120.768 155.105 120.751 155.05 120.717C154.996 120.684 154.95 120.635 154.918 120.575L148.712 109.319C148.677 109.23 148.673 109.13 148.7 109.039C148.727 108.947 148.783 108.869 148.858 108.819C148.934 108.769 149.023 108.751 149.109 108.768C149.196 108.786 149.274 108.837 149.328 108.912L155.534 120.161C155.56 120.206 155.578 120.256 155.586 120.308C155.593 120.36 155.592 120.414 155.58 120.465C155.569 120.517 155.548 120.565 155.519 120.607C155.489 120.649 155.453 120.685 155.411 120.711C155.357 120.748 155.294 120.767 155.23 120.767Z" fill="#AAA9E6"/>
</svg>
