<svg width="290" height="239" viewBox="0 0 290 239" fill="none" xmlns="http://www.w3.org/2000/svg">
<path opacity="0.3" d="M145 202.744C193.017 202.744 231.942 165.474 231.942 119.5C231.942 73.5258 193.017 36.2563 145 36.2563C96.9832 36.2563 58.058 73.5258 58.058 119.5C58.058 165.474 96.9832 202.744 145 202.744Z" fill="#E6E6E6"/>
<path d="M221.77 188.547H178.321V201.119H221.77V188.547Z" fill="#E6E6E6"/>
<path opacity="0.43" d="M212.273 176.255H168.823V188.826H212.273V176.255Z" fill="#E6E6E6"/>
<path d="M194.314 31.5958H108.293V201.119H194.314V31.5958Z" fill="#C9C9C9"/>
<path d="M186.615 50.9229H115.413V170.224H186.615V50.9229Z" fill="black"/>
<path opacity="0.56" d="M151.561 194.753C156.21 194.753 159.979 190.612 159.979 185.504C159.979 180.396 156.21 176.255 151.561 176.255C146.913 176.255 143.144 180.396 143.144 185.504C143.144 190.612 146.913 194.753 151.561 194.753Z" fill="black"/>
<path opacity="0.12" d="M168.149 38.2241H144.029V42.0879H168.149V38.2241Z" fill="black"/>
<path d="M135.292 44.8922C137.462 44.8922 139.222 42.959 139.222 40.5742C139.222 38.1895 137.462 36.2563 135.292 36.2563C133.122 36.2563 131.363 38.1895 131.363 40.5742C131.363 42.959 133.122 44.8922 135.292 44.8922Z" fill="black"/>
<path d="M176.907 71.0945H128.347C126.337 71.0945 124.707 72.8851 124.707 75.0938V79.2126C124.707 81.4213 126.337 83.2118 128.347 83.2118H176.907C178.917 83.2118 180.547 81.4213 180.547 79.2126V75.0938C180.547 72.8851 178.917 71.0945 176.907 71.0945Z" fill="#24285B"/>
<path d="M173.021 77.6352C173.021 77.6352 170.571 77.6352 170.223 83.7854C169.875 89.9357 170.223 188.945 170.223 197.398C170.223 205.851 158.84 207.404 158.84 207.404H124.7V83.7854C124.7 77.2448 129.253 77.6352 129.253 77.6352H173.021Z" fill="#007ED2"/>
<g opacity="0.5">
<path opacity="0.1" d="M143.354 86.6694H130.203V90.3261H143.354V86.6694Z" fill="black"/>
<path opacity="0.1" d="M163.981 86.6694H153.744V90.3261H163.981V86.6694Z" fill="black"/>
<path opacity="0.1" d="M147.53 96.3409H130.203V99.9976H147.53V96.3409Z" fill="black"/>
<path opacity="0.1" d="M163.981 96.3409H153.744V99.9976H163.981V96.3409Z" fill="black"/>
<path opacity="0.1" d="M144.667 106.004H130.203V109.661H144.667V106.004Z" fill="black"/>
<path opacity="0.1" d="M163.981 106.004H153.744V109.661H163.981V106.004Z" fill="black"/>
<path opacity="0.1" d="M147.53 115.668H130.203V119.325H147.53V115.668Z" fill="black"/>
<path opacity="0.1" d="M163.981 115.668H153.744V119.325H163.981V115.668Z" fill="black"/>
<path opacity="0.1" d="M141.781 125.332H130.203V128.988H141.781V125.332Z" fill="black"/>
<path opacity="0.1" d="M163.981 125.332H153.744V128.988H163.981V125.332Z" fill="black"/>
<path opacity="0.1" d="M148.995 135.003H130.203V138.66H148.995V135.003Z" fill="black"/>
<path opacity="0.1" d="M163.981 135.003H153.744V138.66H163.981V135.003Z" fill="black"/>
<path opacity="0.1" d="M144.667 144.667H130.203V148.323H144.667V144.667Z" fill="black"/>
<path opacity="0.1" d="M163.981 144.667H153.744V148.323H163.981V144.667Z" fill="black"/>
<path opacity="0.1" d="M138.867 154.33H130.203V157.987H138.867V154.33Z" fill="black"/>
<path opacity="0.1" d="M163.981 154.33H153.744V157.987H163.981V154.33Z" fill="black"/>
<path opacity="0.1" d="M145.319 163.994H130.203V167.651H145.319V163.994Z" fill="black"/>
<path opacity="0.1" d="M163.981 163.994H153.744V167.651H163.981V163.994Z" fill="black"/>
<path opacity="0.1" d="M141.781 163.787H130.203V167.443H141.781V163.787Z" fill="black"/>
<path opacity="0.1" d="M148.995 173.45H130.203V177.107H148.995V173.45Z" fill="black"/>
<path opacity="0.1" d="M163.981 173.45H153.744V177.107H163.981V173.45Z" fill="black"/>
<path opacity="0.1" d="M144.667 183.122H130.203V186.779H144.667V183.122Z" fill="black"/>
<path opacity="0.1" d="M163.981 183.122H153.744V186.779H163.981V183.122Z" fill="black"/>
<path opacity="0.1" d="M138.867 192.785H130.203V196.442H138.867V192.785Z" fill="black"/>
<path opacity="0.1" d="M163.981 192.785H153.744V196.442H163.981V192.785Z" fill="black"/>
</g>
<path d="M137.025 108.793H91.8865C90.3309 108.793 88.8391 109.472 87.7391 110.68C86.6392 111.889 86.0212 113.528 86.0212 115.238V207.404H122.083C122.083 207.404 131.508 207.787 134.161 196.052C136.815 184.317 137.061 109.757 137.061 109.757" fill="#007ED2"/>
<path opacity="0.44" d="M137.025 108.793H91.8865C90.3309 108.793 88.8391 109.472 87.7391 110.68C86.6392 111.889 86.0212 113.528 86.0212 115.238V207.404H122.083C122.083 207.404 131.508 207.787 134.161 196.052C136.815 184.317 137.061 109.757 137.061 109.757" fill="black"/>
<path d="M113.31 198.075H68.237C68.2631 199.96 68.727 201.807 69.5847 203.439C70.4425 205.072 71.6656 206.437 73.138 207.404H118.733C118.733 207.404 114.187 205.381 113.31 198.075Z" fill="#007ED2"/>
<path d="M159.892 207.404C159.892 207.404 154.817 206.823 152.192 203.939C149.568 201.055 148.864 198.171 148.864 188.364V120.91C148.864 117.696 147.702 114.614 145.634 112.342C143.566 110.069 140.762 108.793 137.837 108.793H137.025C136.094 108.793 135.173 108.994 134.313 109.386C133.453 109.778 132.672 110.352 132.014 111.075C131.356 111.799 130.834 112.658 130.479 113.603C130.123 114.548 129.941 115.561 129.942 116.584V187.687C129.942 206.153 122.59 207.404 122.061 207.404H159.892Z" fill="#007ED2"/>
<path opacity="0.1" d="M113.31 198.075H68.237C68.2631 199.96 68.727 201.807 69.5847 203.439C70.4425 205.072 71.6656 206.437 73.138 207.404H118.733C118.733 207.404 114.187 205.381 113.31 198.075Z" fill="black"/>
<path opacity="0.1" d="M159.892 207.404C159.892 207.404 154.817 206.823 152.192 203.939C149.568 201.055 148.864 198.171 148.864 188.364V120.91C148.864 117.696 147.702 114.614 145.634 112.342C143.566 110.069 140.762 108.793 137.837 108.793H137.025C136.094 108.793 135.173 108.994 134.313 109.386C133.453 109.778 132.672 110.352 132.014 111.075C131.356 111.799 130.834 112.658 130.479 113.603C130.123 114.548 129.941 115.561 129.942 116.584V187.687C129.942 206.153 122.59 207.404 122.061 207.404H159.892Z" fill="black"/>
<path opacity="0.1" d="M103.834 121.006H90.683V124.662H103.834V121.006Z" fill="black"/>
<path opacity="0.1" d="M124.468 121.006H114.231V124.662H124.468V121.006Z" fill="black"/>
<path opacity="0.1" d="M108.01 130.669H90.683V134.326H108.01V130.669Z" fill="black"/>
<path opacity="0.1" d="M124.468 130.669H114.231V134.326H124.468V130.669Z" fill="black"/>
<path opacity="0.1" d="M105.147 140.341H90.683V143.998H105.147V140.341Z" fill="black"/>
<path opacity="0.1" d="M124.468 140.341H114.231V143.998H124.468V140.341Z" fill="black"/>
<path opacity="0.1" d="M108.01 150.004H90.683V153.661H108.01V150.004Z" fill="black"/>
<path opacity="0.1" d="M124.468 150.004H114.231V153.661H124.468V150.004Z" fill="black"/>
<path opacity="0.1" d="M102.261 159.668H90.683V163.325H102.261V159.668Z" fill="black"/>
<path opacity="0.1" d="M124.468 159.668H114.231V163.325H124.468V159.668Z" fill="black"/>
<path opacity="0.1" d="M105.147 169.897H90.683V173.554H105.147V169.897Z" fill="black"/>
<path opacity="0.1" d="M124.468 169.897H114.231V173.554H124.468V169.897Z" fill="black"/>
<path opacity="0.1" d="M99.3467 179.561H90.683V183.217H99.3467V179.561Z" fill="black"/>
<path opacity="0.1" d="M124.468 179.561H114.231V183.217H124.468V179.561Z" fill="black"/>
<path opacity="0.1" d="M105.799 189.224H90.683V192.881H105.799V189.224Z" fill="black"/>
<path opacity="0.1" d="M124.468 189.224H114.231V192.881H124.468V189.224Z" fill="black"/>
<path opacity="0.05" d="M120.756 50.4529H108.3V76.6552H120.756V50.4529Z" fill="black"/>
<path d="M118.704 47.569H87.5148V73.7713H118.704V47.569Z" fill="#E6E6E6"/>
<g opacity="0.08">
<path d="M194.344 44.693C193.493 44.3387 192.614 44.072 191.719 43.8963C189.573 43.527 187.379 43.7017 185.305 44.4069C183.23 45.112 181.329 46.3291 179.748 47.9651C178.167 49.601 176.947 51.6125 176.182 53.8458C175.417 56.0791 175.126 58.4751 175.333 60.8507C175.539 63.2263 176.237 65.5186 177.373 67.5523C178.51 69.5861 180.054 71.3074 181.888 72.5849C183.723 73.8624 185.799 74.6621 187.957 74.923C190.116 75.1838 192.3 74.8989 194.344 74.09V44.693Z" fill="black"/>
</g>
<path d="M191.915 72.5684C199.783 72.5684 206.161 65.5596 206.161 56.9139C206.161 48.2682 199.783 41.2594 191.915 41.2594C184.047 41.2594 177.668 48.2682 177.668 56.9139C177.668 65.5596 184.047 72.5684 191.915 72.5684Z" fill="#FFD200"/>
<path d="M192.371 49.0826C192.777 49.0826 192.901 49.234 192.901 49.6801V50.6202C193.608 50.7039 194.281 50.9971 194.848 51.4686C195.415 51.9401 195.854 52.5721 196.12 53.297C196.33 53.7591 196.243 54.006 195.772 54.2371L194.909 54.6673C194.51 54.8744 194.314 54.7788 194.09 54.3167C193.913 53.8362 193.599 53.4319 193.195 53.1646C192.791 52.8973 192.319 52.7816 191.849 52.8349C190.356 52.8349 189.674 53.3129 189.674 54.4283C189.709 54.7643 189.848 55.0768 190.069 55.3122C190.29 55.5477 190.579 55.6914 190.885 55.7189C191.301 55.8194 191.723 55.8912 192.147 55.934C192.94 55.9737 193.724 56.1401 194.474 56.4279C194.851 56.5637 195.203 56.7743 195.511 57.0493C195.828 57.4058 196.076 57.8285 196.242 58.2924C196.407 58.7562 196.487 59.2519 196.475 59.75C196.475 61.8452 195.192 63.2713 192.937 63.6377V64.6415C192.937 65.0797 192.814 65.239 192.408 65.239H191.4C191.001 65.239 190.856 65.0797 190.856 64.6415V63.6298C190.071 63.5713 189.32 63.2586 188.697 62.7312C188.073 62.2037 187.606 61.4851 187.355 60.6662C187.217 60.2439 187.355 59.9571 187.761 59.7819L188.616 59.4393C189.051 59.264 189.247 59.3835 189.442 59.8615C189.623 60.3753 189.952 60.8095 190.379 61.0975C190.806 61.3854 191.308 61.511 191.806 61.4549C193.415 61.4549 194.22 60.8972 194.22 59.758C194.236 59.4989 194.174 59.2413 194.042 59.0252C193.911 58.8091 193.719 58.6466 193.495 58.563C192.937 58.3494 192.353 58.2285 191.762 58.2045C190.958 58.1491 190.166 57.9583 189.414 57.6388C188.798 57.4251 188.268 56.9857 187.912 56.3941C187.555 55.8026 187.394 55.0946 187.456 54.3884C187.456 52.3091 188.645 50.9229 190.885 50.5963V49.6801C190.885 49.234 191.03 49.0826 191.429 49.0826H192.371Z" fill="black"/>
<path opacity="0.05" d="M194.315 108.809H173.435V155.525H194.315V108.809Z" fill="black"/>
<path d="M215.158 104.825H178.35V151.542H215.158V104.825Z" fill="#E6E6E6"/>
<path opacity="0.44" d="M210.417 110.864H183.091V121.524H210.417V110.864Z" fill="black"/>
<path d="M195.873 125.308H183.091V134.597H195.873V125.308Z" fill="#C9C9C9"/>
<path d="M210.417 125.308H197.635V134.597H210.417V125.308Z" fill="#C9C9C9"/>
<path d="M195.873 137.019H183.091V146.308H195.873V137.019Z" fill="#C9C9C9"/>
<path d="M210.417 137.019H197.635V146.308H210.417V137.019Z" fill="#C9C9C9"/>
<path d="M97.6213 59.6146H93.525V67.5016H97.6213V59.6146Z" fill="#FFD200"/>
<path d="M105.161 57.6389H101.065V67.5016H105.161V57.6389Z" fill="#007ED2"/>
<path d="M112.701 53.8387H108.605V67.5016H112.701V53.8387Z" fill="#24285B"/>
<path opacity="0.58" d="M192.596 197.932C192.596 197.932 186.796 196.187 185.499 190.228C185.499 190.228 194.525 188.22 194.786 198.458L192.596 197.932Z" fill="#007ED2"/>
<path opacity="0.73" d="M193.307 197.302C193.307 197.302 189.239 190.228 192.821 183.616C192.821 183.616 199.687 188.396 196.634 197.31L193.307 197.302Z" fill="#007ED2"/>
<path d="M194.358 197.302C194.358 197.302 196.533 189.838 203.014 188.42C203.014 188.42 204.232 193.271 198.802 197.326L194.358 197.302Z" fill="#007ED2"/>
<path d="M190.131 197.135L191.313 206.018L198.751 206.05L199.846 197.183L190.131 197.135Z" fill="#24285B"/>
</svg>
