<svg width="1105" height="611" viewBox="0 0 1105 611" fill="none" xmlns="http://www.w3.org/2000/svg">
<path d="M402.082 128.088H622.428V243.784C622.428 246.139 621.322 248.398 619.354 250.064C617.385 251.73 614.716 252.665 611.932 252.665H412.579C409.795 252.665 407.125 251.73 405.156 250.064C403.188 248.398 402.082 246.139 402.082 243.784V128.088Z" fill="white"/>
<path d="M611.932 253.718H412.579C409.463 253.712 406.477 252.66 404.276 250.793C402.075 248.927 400.839 246.398 400.839 243.761V128.088C400.839 127.807 400.969 127.537 401.201 127.336C401.434 127.135 401.75 127.019 402.082 127.013H622.428C622.765 127.013 623.088 127.126 623.327 127.328C623.565 127.529 623.699 127.803 623.699 128.088V243.761C623.699 246.402 622.459 248.934 620.252 250.801C618.046 252.669 615.052 253.718 611.932 253.718ZM403.353 129.163V243.691C403.353 245.763 404.324 247.751 406.053 249.219C407.783 250.687 410.129 251.515 412.579 251.521H611.932C614.386 251.521 616.74 250.696 618.475 249.227C620.21 247.759 621.185 245.767 621.185 243.691V129.163H403.353Z" fill="#010035"/>
<path d="M412.579 111.54H611.932C614.716 111.54 617.385 112.476 619.354 114.141C621.322 115.807 622.428 118.066 622.428 120.422V128.088H402.082V120.422C402.082 118.066 403.188 115.807 405.156 114.141C407.125 112.476 409.795 111.54 412.579 111.54Z" fill="white"/>
<path d="M622.428 129.163H402.082C401.75 129.157 401.434 129.041 401.201 128.84C400.969 128.639 400.839 128.369 400.839 128.088V120.422C400.846 117.789 402.085 115.266 404.285 113.405C406.486 111.543 409.467 110.494 412.579 110.488H611.932C615.038 110.501 618.013 111.552 620.207 113.413C622.401 115.274 623.636 117.793 623.644 120.422V128.088C623.644 128.365 623.518 128.632 623.291 128.832C623.065 129.033 622.756 129.151 622.428 129.163ZM403.353 127.013H621.185V120.422C621.178 118.349 620.2 116.364 618.465 114.9C616.731 113.437 614.381 112.615 611.932 112.615H412.579C410.134 112.621 407.792 113.446 406.063 114.909C404.334 116.371 403.36 118.353 403.353 120.422V127.013Z" fill="#010035"/>
<path d="M456.333 174.39C464.174 174.39 470.531 169.011 470.531 162.376C470.531 155.741 464.174 150.362 456.333 150.362C448.492 150.362 442.135 155.741 442.135 162.376C442.135 169.011 448.492 174.39 456.333 174.39Z" fill="#007ED2"/>
<path d="M430.533 198.697C430.753 193.028 433.568 187.653 438.385 183.708C443.202 179.764 449.643 177.558 456.347 177.558C463.05 177.558 469.491 179.764 474.308 183.708C479.125 187.653 481.941 193.028 482.16 198.697H430.533Z" fill="#007ED2"/>
<path d="M568.177 174.39C576.019 174.39 582.375 169.011 582.375 162.376C582.375 155.741 576.019 150.362 568.177 150.362C560.336 150.362 553.979 155.741 553.979 162.376C553.979 169.011 560.336 174.39 568.177 174.39Z" fill="#007ED2"/>
<path d="M542.378 198.697C542.597 193.028 545.413 187.653 550.23 183.708C555.047 179.764 561.488 177.558 568.191 177.558C574.895 177.558 581.336 179.764 586.153 183.708C590.97 187.653 593.785 193.028 594.005 198.697H542.378Z" fill="#007ED2"/>
<path d="M536.494 163.451H503.347C503.01 163.451 502.687 163.338 502.448 163.136C502.21 162.934 502.076 162.661 502.076 162.376C502.076 162.091 502.21 161.817 502.448 161.616C502.687 161.414 503.01 161.301 503.347 161.301H533.566L526.964 155.434C526.847 155.336 526.755 155.22 526.691 155.091C526.628 154.963 526.595 154.825 526.595 154.686C526.595 154.547 526.628 154.409 526.691 154.281C526.755 154.153 526.847 154.036 526.964 153.938C527.206 153.743 527.527 153.633 527.862 153.633C528.196 153.633 528.518 153.743 528.76 153.938L537.378 161.628C537.551 161.775 537.668 161.963 537.712 162.168C537.757 162.372 537.727 162.583 537.627 162.773C537.536 162.967 537.38 163.134 537.179 163.254C536.978 163.375 536.74 163.443 536.494 163.451Z" fill="#010035"/>
<path d="M528.207 170.3C527.864 170.297 527.537 170.179 527.296 169.973C527.058 169.771 526.924 169.498 526.924 169.213C526.924 168.928 527.058 168.655 527.296 168.454L535.583 161.629C535.827 161.443 536.147 161.344 536.476 161.354C536.804 161.363 537.115 161.48 537.344 161.68C537.573 161.879 537.702 162.146 537.703 162.424C537.704 162.703 537.578 162.97 537.35 163.171L529.064 169.996C528.834 170.185 528.528 170.294 528.207 170.3Z" fill="#010035"/>
<path d="M520.777 172.45H487.63C487.384 172.453 487.143 172.395 486.937 172.283C486.73 172.171 486.568 172.009 486.469 171.819C486.371 171.625 486.341 171.411 486.386 171.203C486.43 170.995 486.545 170.803 486.718 170.65L495.336 162.984C495.449 162.877 495.586 162.79 495.74 162.728C495.893 162.666 496.059 162.631 496.229 162.625C496.398 162.619 496.568 162.641 496.727 162.691C496.886 162.741 497.032 162.818 497.155 162.916C497.279 163.014 497.378 163.133 497.447 163.264C497.515 163.395 497.552 163.537 497.555 163.68C497.558 163.824 497.527 163.967 497.464 164.1C497.401 164.233 497.306 164.354 497.187 164.456L490.558 170.3H520.777C521.112 170.305 521.431 170.421 521.667 170.621C521.904 170.821 522.04 171.091 522.047 171.375C522.047 171.66 521.914 171.933 521.675 172.135C521.437 172.337 521.114 172.45 520.777 172.45Z" fill="#010035"/>
<path d="M495.889 179.275C495.729 179.277 495.57 179.251 495.423 179.199C495.276 179.146 495.143 179.069 495.032 178.971L486.746 172.169C486.514 171.965 486.385 171.693 486.385 171.41C486.385 171.127 486.514 170.855 486.746 170.65C486.984 170.449 487.307 170.336 487.643 170.336C487.98 170.336 488.303 170.449 488.541 170.65L496.828 177.475C496.945 177.573 497.038 177.689 497.101 177.818C497.164 177.946 497.197 178.084 497.197 178.223C497.197 178.362 497.164 178.5 497.101 178.628C497.038 178.757 496.945 178.873 496.828 178.971C496.703 179.072 496.556 179.151 496.394 179.203C496.233 179.255 496.061 179.28 495.889 179.275Z" fill="#010035"/>
<path d="M577.956 212.838H446.555C446.188 212.838 445.837 212.715 445.578 212.496C445.319 212.277 445.173 211.98 445.173 211.67C445.18 211.362 445.328 211.068 445.586 210.85C445.843 210.632 446.19 210.507 446.555 210.501H577.956C578.322 210.501 578.673 210.624 578.932 210.843C579.191 211.062 579.337 211.36 579.337 211.67C579.337 211.98 579.191 212.277 578.932 212.496C578.673 212.715 578.322 212.838 577.956 212.838Z" fill="#007ED2"/>
<path d="M577.956 220.738H446.555C446.188 220.738 445.837 220.615 445.578 220.396C445.319 220.177 445.173 219.879 445.173 219.57C445.18 219.261 445.328 218.968 445.586 218.75C445.843 218.532 446.19 218.407 446.555 218.401H577.956C578.322 218.401 578.673 218.524 578.932 218.743C579.191 218.962 579.337 219.26 579.337 219.57C579.337 219.879 579.191 220.177 578.932 220.396C578.673 220.615 578.322 220.738 577.956 220.738Z" fill="#007ED2"/>
<path d="M564.448 228.731H446.555C446.188 228.731 445.837 228.608 445.578 228.389C445.319 228.17 445.173 227.873 445.173 227.563C445.18 227.255 445.328 226.961 445.586 226.743C445.843 226.525 446.19 226.4 446.555 226.394H564.448C564.812 226.4 565.16 226.525 565.417 226.743C565.674 226.961 565.822 227.255 565.829 227.563C565.829 227.873 565.684 228.17 565.425 228.389C565.166 228.608 564.815 228.731 564.448 228.731Z" fill="#007ED2"/>
<path d="M417.578 122.665C419.44 122.665 420.948 121.389 420.948 119.814C420.948 118.239 419.44 116.962 417.578 116.962C415.717 116.962 414.208 118.239 414.208 119.814C414.208 121.389 415.717 122.665 417.578 122.665Z" fill="#007ED2"/>
<path d="M429.456 122.665C431.317 122.665 432.826 121.389 432.826 119.814C432.826 118.239 431.317 116.962 429.456 116.962C427.595 116.962 426.086 118.239 426.086 119.814C426.086 121.389 427.595 122.665 429.456 122.665Z" fill="#007ED2"/>
<path d="M441.334 122.665C443.195 122.665 444.704 121.389 444.704 119.814C444.704 118.239 443.195 116.962 441.334 116.962C439.473 116.962 437.964 118.239 437.964 119.814C437.964 121.389 439.473 122.665 441.334 122.665Z" fill="#007ED2"/>
<path d="M656.542 117.407H940.89V401.341C940.89 404.441 939.435 407.413 936.845 409.605C934.255 411.797 930.742 413.028 927.079 413.028H670.326C666.663 413.028 663.15 411.797 660.56 409.605C657.97 407.413 656.515 404.441 656.515 401.341V117.407H656.542Z" fill="white"/>
<path d="M927.079 414.194H670.188C666.163 414.188 662.306 412.831 659.463 410.421C656.62 408.011 655.023 404.745 655.023 401.339V117.406C655.023 117.096 655.169 116.799 655.428 116.58C655.687 116.361 656.038 116.238 656.404 116.238H940.89C941.257 116.238 941.608 116.361 941.867 116.58C942.126 116.799 942.272 117.096 942.272 117.406V401.339C942.264 404.747 940.661 408.013 937.814 410.422C934.966 412.832 931.106 414.188 927.079 414.194ZM657.924 118.575V401.386C657.924 404.171 659.229 406.843 661.554 408.815C663.88 410.787 667.034 411.898 670.326 411.904H927.217C930.512 411.898 933.669 410.787 935.999 408.816C938.328 406.845 939.64 404.174 939.647 401.386V118.575H657.924Z" fill="#010035"/>
<path d="M882.91 389.631H714.412C710.87 389.607 707.48 388.409 704.97 386.294C702.46 384.179 701.03 381.316 700.987 378.319V371.541C700.994 368.511 702.42 365.608 704.951 363.466C707.483 361.324 710.915 360.118 714.495 360.111H882.993C886.576 360.111 890.011 361.315 892.544 363.459C895.078 365.602 896.501 368.509 896.501 371.541V378.319C896.464 381.342 895.014 384.23 892.466 386.35C889.919 388.47 886.483 389.65 882.91 389.631ZM714.412 362.449C711.576 362.467 708.865 363.433 706.867 365.136C704.87 366.839 703.749 369.141 703.749 371.541V378.319C703.757 380.726 704.892 383.033 706.906 384.733C708.921 386.433 711.65 387.388 714.495 387.388H882.993C885.838 387.388 888.567 386.433 890.581 384.733C892.596 383.033 893.731 380.726 893.738 378.319V371.541C893.738 369.129 892.606 366.817 890.591 365.112C888.576 363.407 885.843 362.449 882.993 362.449H714.412Z" fill="#010035"/>
<path d="M719.743 195.215H697.203V332.67H719.743V195.215Z" fill="#007ED2"/>
<path d="M761.343 227.399H738.803V332.648H761.343V227.399Z" fill="#007ED2"/>
<path d="M802.915 206.434H780.375V332.671H802.915V206.434Z" fill="#007ED2"/>
<path d="M844.515 244.461H821.975V332.648H844.515V244.461Z" fill="#007ED2"/>
<path d="M886.115 206.434H863.574V332.671H886.115V206.434Z" fill="#007ED2"/>
<path d="M885.59 142.252H847.387C847.021 142.252 846.67 142.129 846.411 141.91C846.152 141.69 846.006 141.393 846.006 141.083C846.006 140.773 846.152 140.476 846.411 140.257C846.67 140.038 847.021 139.915 847.387 139.915H885.534C885.899 139.921 886.246 140.046 886.503 140.263C886.761 140.481 886.908 140.775 886.916 141.083C886.916 141.385 886.778 141.676 886.531 141.893C886.284 142.111 885.946 142.24 885.59 142.252Z" fill="#010035"/>
<path d="M872.248 154.289H847.387C847.021 154.289 846.67 154.166 846.411 153.947C846.152 153.728 846.006 153.43 846.006 153.12C846.006 152.81 846.152 152.513 846.411 152.294C846.67 152.075 847.021 151.952 847.387 151.952H872.248C872.614 151.952 872.965 152.075 873.225 152.294C873.484 152.513 873.629 152.81 873.629 153.12C873.629 153.43 873.484 153.728 873.225 153.947C872.965 154.166 872.614 154.289 872.248 154.289Z" fill="#010035"/>
<path d="M836.035 207.859C823.991 207.859 813.494 196.5 805.042 187.338C799.517 181.401 794.352 175.651 790.899 175.651C786.977 175.651 781.563 178.386 775.845 181.191C768.055 185.001 759.271 189.325 750.984 188.927C735.488 188.226 706.374 159.29 705.158 158.052C705.044 157.942 704.957 157.814 704.902 157.675C704.847 157.536 704.825 157.39 704.838 157.244C704.851 157.098 704.898 156.956 704.977 156.826C705.055 156.695 705.164 156.58 705.296 156.486C705.549 156.28 705.885 156.165 706.235 156.165C706.586 156.165 706.922 156.28 707.175 156.486C707.451 156.789 736.759 185.936 751.122 186.59C758.691 186.964 767.144 182.804 774.602 179.134C780.623 176.189 786.314 173.408 790.899 173.291C795.484 173.174 800.816 178.713 807.279 185.749C815.566 194.7 825.787 205.826 836.863 205.382C846.448 204.985 851.034 197.926 855.895 190.447C860.757 182.967 865.37 175.815 875.065 174.249C875.393 174.227 875.719 174.309 875.98 174.479C876.24 174.648 876.417 174.894 876.475 175.168C876.534 175.442 876.47 175.724 876.296 175.96C876.122 176.196 875.851 176.37 875.535 176.446C867.082 177.802 862.773 184.463 858.188 191.522C853.216 199.211 848.05 207.158 837.001 207.626L836.035 207.859Z" fill="#007ED2"/>
<path d="M905.395 333.77H678.889C678.716 333.77 678.545 333.741 678.386 333.684C678.226 333.627 678.082 333.544 677.961 333.44C677.84 333.335 677.745 333.211 677.681 333.075C677.618 332.939 677.587 332.794 677.591 332.648C677.605 332.363 677.747 332.092 677.988 331.893C678.229 331.693 678.551 331.578 678.889 331.573H905.395C905.747 331.573 906.084 331.691 906.333 331.901C906.581 332.112 906.721 332.397 906.721 332.695C906.717 332.839 906.68 332.981 906.612 333.113C906.543 333.245 906.444 333.365 906.321 333.465C906.198 333.565 906.053 333.643 905.894 333.695C905.735 333.748 905.566 333.773 905.395 333.77Z" fill="#007ED2"/>
<path d="M706.512 161.628C705.507 161.628 704.524 161.376 703.688 160.903C702.852 160.431 702.201 159.759 701.816 158.973C701.431 158.187 701.331 157.323 701.527 156.488C701.723 155.654 702.207 154.888 702.918 154.286C703.629 153.685 704.534 153.275 705.52 153.109C706.506 152.944 707.528 153.029 708.457 153.354C709.385 153.68 710.179 154.231 710.738 154.938C711.296 155.645 711.594 156.477 711.594 157.327C711.594 158.468 711.059 159.562 710.106 160.368C709.153 161.175 707.86 161.628 706.512 161.628ZM706.512 155.271C706.024 155.271 705.548 155.393 705.143 155.623C704.738 155.853 704.423 156.179 704.238 156.56C704.053 156.942 704.006 157.361 704.103 157.765C704.2 158.169 704.437 158.54 704.783 158.83C705.13 159.12 705.571 159.316 706.049 159.394C706.528 159.471 707.023 159.427 707.472 159.266C707.921 159.105 708.303 158.835 708.569 158.489C708.836 158.144 708.976 157.74 708.97 157.327C708.97 157.055 708.906 156.786 708.783 156.535C708.659 156.284 708.477 156.056 708.248 155.865C708.02 155.673 707.749 155.522 707.451 155.42C707.152 155.318 706.833 155.268 706.512 155.271Z" fill="#007ED2"/>
<path d="M875.01 179.882C874.006 179.877 873.026 179.621 872.194 179.146C871.362 178.67 870.715 177.997 870.334 177.211C869.954 176.425 869.857 175.561 870.056 174.728C870.256 173.895 870.742 173.131 871.454 172.532C872.166 171.933 873.071 171.526 874.056 171.362C875.042 171.198 876.062 171.284 876.989 171.61C877.916 171.937 878.708 172.488 879.266 173.194C879.823 173.901 880.12 174.732 880.12 175.581C880.113 176.724 879.572 177.818 878.614 178.624C877.656 179.43 876.361 179.882 875.01 179.882ZM875.01 173.501C874.524 173.501 874.049 173.623 873.644 173.852C873.24 174.08 872.925 174.405 872.739 174.785C872.553 175.165 872.504 175.584 872.599 175.987C872.694 176.391 872.928 176.761 873.272 177.052C873.616 177.343 874.054 177.541 874.531 177.622C875.007 177.702 875.502 177.661 875.951 177.503C876.4 177.346 876.784 177.079 877.054 176.737C877.324 176.395 877.469 175.993 877.469 175.581C877.469 175.03 877.21 174.501 876.749 174.11C876.288 173.72 875.662 173.501 875.01 173.501Z" fill="#007ED2"/>
<path d="M670.326 93.1685H927.079C930.742 93.1685 934.255 94.3997 936.845 96.5914C939.435 98.783 940.89 101.755 940.89 104.855V117.359H656.542V104.855C656.542 101.76 657.994 98.7906 660.578 96.5996C663.162 94.4086 666.668 93.1746 670.326 93.1685Z" fill="white"/>
<path d="M940.89 118.575H656.542C656.176 118.575 655.825 118.452 655.566 118.233C655.307 118.014 655.161 117.716 655.161 117.406V104.855C655.161 101.45 656.758 98.1836 659.601 95.7734C662.444 93.3633 666.302 92.0062 670.326 92H927.217C931.244 92.0062 935.104 93.3625 937.952 95.772C940.799 98.1815 942.402 101.448 942.41 104.855V117.36C942.419 117.527 942.385 117.695 942.31 117.85C942.236 118.006 942.123 118.146 941.979 118.262C941.835 118.377 941.663 118.465 941.475 118.519C941.287 118.573 941.088 118.592 940.89 118.575ZM657.923 116.238H939.509V104.855C939.502 102.068 938.19 99.3959 935.86 97.4247C933.531 95.4536 930.374 94.3435 927.079 94.3373H670.188C666.896 94.3435 663.741 95.4543 661.416 97.4261C659.091 99.3979 657.785 102.07 657.785 104.855L657.923 116.238Z" fill="#010035"/>
<path d="M363.134 237.684H172.896C167.298 237.684 162.759 241.524 162.759 246.261V447.97C162.759 452.708 167.298 456.548 172.896 456.548H363.134C368.733 456.548 373.272 452.708 373.272 447.97V246.261C373.272 241.524 368.733 237.684 363.134 237.684Z" fill="white"/>
<path d="M363.134 457.787H172.896C169.842 457.787 166.912 456.76 164.752 454.932C162.591 453.104 161.378 450.625 161.378 448.04V246.262C161.385 243.679 162.601 241.203 164.76 239.377C166.918 237.55 169.844 236.521 172.896 236.515H363.134C366.187 236.521 369.112 237.55 371.271 239.377C373.429 241.203 374.645 243.679 374.653 246.262V447.97C374.664 449.256 374.374 450.531 373.8 451.722C373.226 452.912 372.379 453.995 371.308 454.907C370.238 455.82 368.964 456.544 367.561 457.038C366.158 457.533 364.654 457.787 363.134 457.787ZM172.896 238.852C170.576 238.859 168.353 239.641 166.713 241.029C165.072 242.418 164.147 244.299 164.14 246.262V447.97C164.129 448.949 164.348 449.92 164.783 450.827C165.218 451.734 165.861 452.559 166.675 453.255C167.489 453.95 168.458 454.502 169.526 454.879C170.594 455.256 171.74 455.45 172.896 455.45H363.134C365.456 455.45 367.684 454.669 369.326 453.279C370.968 451.89 371.89 450.005 371.89 448.04V246.262C371.883 244.299 370.958 242.418 369.318 241.029C367.677 239.641 365.454 238.859 363.134 238.852H172.896Z" fill="#010035"/>
<path d="M320.208 410.317H206.762C206.396 410.317 206.044 410.194 205.785 409.975C205.526 409.756 205.381 409.459 205.381 409.149C205.388 408.841 205.536 408.547 205.793 408.329C206.051 408.111 206.398 407.986 206.762 407.98H320.208C320.575 407.98 320.926 408.103 321.185 408.322C321.444 408.541 321.589 408.839 321.589 409.149C321.589 409.459 321.444 409.756 321.185 409.975C320.926 410.194 320.575 410.317 320.208 410.317Z" fill="#007ED2"/>
<path d="M265.433 425.998H206.762C206.398 425.992 206.051 425.867 205.793 425.65C205.536 425.432 205.388 425.138 205.381 424.83C205.381 424.52 205.526 424.223 205.785 424.003C206.044 423.784 206.396 423.661 206.762 423.661H265.433C265.799 423.661 266.15 423.784 266.409 424.003C266.668 424.223 266.814 424.52 266.814 424.83C266.807 425.138 266.659 425.432 266.401 425.65C266.144 425.867 265.797 425.992 265.433 425.998Z" fill="#007ED2"/>
<path d="M213.778 286.953C230.352 300.977 246.861 314.954 263.306 328.884C263.557 329.116 263.866 329.298 264.209 329.419C264.552 329.54 264.923 329.597 265.294 329.585H341.174C340.758 339.502 337.531 349.19 331.765 357.832C325.999 366.473 317.862 373.815 308.041 379.239C298.22 384.663 287.001 388.01 275.332 388.998C263.662 389.986 251.882 388.586 240.986 384.915C230.089 381.245 220.395 375.413 212.72 367.909C205.044 360.406 199.613 351.451 196.884 341.8C194.155 332.148 194.207 322.083 197.036 312.453C199.866 302.822 205.39 293.908 213.143 286.462L213.778 286.953Z" fill="#007ED2"/>
<path d="M270.653 265.381V325.169H271.371L339.765 325.028C341.284 325.028 341.284 325.028 341.174 323.743C340.312 312.372 335.789 301.417 328.096 292.065C320.403 282.713 309.833 275.32 297.53 270.686C290.02 267.911 282.023 266.197 273.857 265.615L270.653 265.381Z" fill="#007ED2"/>
<path d="M265.433 324.374V265.427C257.217 265.787 249.118 267.231 241.428 269.704C232.23 272.783 223.838 277.366 216.734 283.19L265.433 324.374Z" fill="#007ED2"/>
<path d="M484.701 292.54C468.432 288.403 459.841 272.299 455.504 259.491C450.643 244.929 444.925 233.009 451.858 217.84C453.433 214.357 455.974 210.828 460.145 209.706C461.186 209.579 462.189 209.286 463.101 208.841C463.826 208.235 464.366 207.489 464.675 206.668C474.564 186.941 502.546 186.403 523.539 189.185C535.693 190.798 551.466 195.495 555.25 206.06C562.183 225.53 556.327 246.706 543.565 263.534C531.632 279.358 509.065 298.851 484.701 292.54Z" fill="white"/>
<path d="M494.01 294.877C490.725 294.884 487.457 294.475 484.315 293.662C467.327 289.338 458.543 272.883 454.178 259.818C453.626 258.158 453.074 256.522 452.493 254.91C448.074 242.218 444.207 231.233 450.56 217.513C452.797 212.581 455.946 209.613 459.841 208.678L460.67 208.514C461.344 208.519 461.997 208.315 462.506 207.94C463.015 207.566 463.344 207.047 463.432 206.481C473.735 186.006 502.104 185.211 523.871 188.133C532.157 189.232 552.211 193.182 556.714 205.826C563.288 224.338 558.979 245.56 544.864 264.259C532.903 279.848 514.064 294.877 494.01 294.877ZM506.275 189.138C489.701 189.138 473.128 193.112 466.029 207.112C465.658 208.128 464.971 209.04 464.04 209.753C463.217 210.242 462.272 210.562 461.277 210.688L460.587 210.852C457.576 211.553 455.062 214.054 453.129 218.261C447.162 231.326 450.864 241.961 455.145 254.255C455.725 255.868 456.278 257.504 456.858 259.187C461.029 271.668 469.316 287.421 485.116 291.441C507.214 297.028 529.312 280.363 542.488 262.903C556.161 244.859 560.36 224.268 554.007 206.387C549.946 195.028 531.246 191.382 523.401 190.354C517.738 189.576 512.012 189.169 506.275 189.138Z" fill="#010035"/>
<path d="M558.62 253.133C558.62 253.133 576.05 271.574 573.315 275.898C570.58 280.222 559.752 278.235 559.752 278.235" fill="white"/>
<path d="M564.918 279.942C563.062 279.944 561.212 279.787 559.393 279.475C559.027 279.413 558.705 279.23 558.498 278.967C558.29 278.704 558.215 278.383 558.288 278.073C558.362 277.763 558.577 277.49 558.888 277.315C559.199 277.139 559.579 277.076 559.946 277.138C562.708 277.605 570.194 278.213 572.017 275.315C573.453 272.977 565.553 262.389 557.46 253.812C557.229 253.568 557.12 253.259 557.156 252.948C557.193 252.638 557.371 252.352 557.653 252.152C557.946 251.965 558.313 251.881 558.678 251.915C559.042 251.95 559.378 252.102 559.614 252.339C563.841 256.827 577.403 271.762 574.448 276.413C572.735 279.288 568.398 279.942 564.918 279.942Z" fill="#010035"/>
<path d="M552.543 227.423C563.039 233.407 561.741 247.898 562.653 257.177C563.923 270.219 564.844 283.292 565.415 296.397C565.774 304.694 540.555 306.821 535.776 304.694L543.234 337.066L488.292 323.884L485.945 286.043C485.945 286.043 502.518 284.851 510.805 267.344C519.092 249.838 515.694 223.87 515.694 223.87C515.694 223.87 542.295 221.556 552.543 227.423Z" fill="white"/>
<path d="M543.234 338.234H542.847L487.85 325.052C487.572 324.989 487.323 324.853 487.14 324.665C486.956 324.476 486.848 324.244 486.828 324L484.481 286.136C484.465 285.837 484.585 285.545 484.816 285.319C485.047 285.092 485.372 284.95 485.724 284.92C486.387 284.92 501.717 283.541 509.369 266.876C517.241 249.721 514.203 224.197 514.175 223.94C514.152 223.631 514.26 223.324 514.479 223.075C514.595 222.956 514.737 222.858 514.899 222.786C515.06 222.713 515.236 222.669 515.418 222.655C516.523 222.655 542.792 220.481 553.316 226.488C562.625 231.817 563.205 243.036 563.675 252.198C563.675 253.974 563.868 255.681 564.034 257.247C565.305 270.289 566.244 283.495 566.796 296.513C566.784 297.834 566.332 299.124 565.491 300.236C564.651 301.349 563.456 302.237 562.045 302.801C555.609 306.213 543.455 307.358 537.544 306.517L544.588 336.902C544.631 337.1 544.616 337.304 544.544 337.495C544.472 337.687 544.344 337.861 544.173 338C543.899 338.164 543.569 338.246 543.234 338.234ZM489.535 322.995L541.439 335.429L534.422 304.928C534.363 304.711 534.381 304.484 534.475 304.276C534.568 304.068 534.733 303.888 534.947 303.759C535.168 303.645 535.421 303.585 535.679 303.585C535.937 303.585 536.191 303.645 536.411 303.759C539.477 305.138 553.675 304.413 560.581 300.767C562.957 299.505 564.117 298.079 564.034 296.537C563.481 283.541 562.542 270.359 561.272 257.364C561.106 255.774 561.023 254.045 560.913 252.222C560.471 243.714 559.918 233.126 551.769 228.475C543.483 223.66 522.572 224.595 517.048 224.922C517.573 230.274 519.175 252.035 511.937 267.765C504.7 283.495 491.58 286.463 487.298 287.141L489.535 322.995Z" fill="#010035"/>
<path d="M564.006 286.697C564.006 286.697 548.869 286.697 545.25 269.401Z" fill="white"/>
<path d="M564.006 287.866C563.841 287.866 547.654 287.656 543.869 269.612C543.813 269.306 543.899 268.993 544.111 268.74C544.322 268.487 544.642 268.313 545.002 268.256C545.361 268.202 545.73 268.269 546.031 268.444C546.331 268.62 546.537 268.888 546.604 269.191C549.946 285.272 563.454 285.552 564.006 285.552C564.373 285.552 564.724 285.675 564.983 285.895C565.242 286.114 565.387 286.411 565.387 286.721C565.38 287.027 565.231 287.318 564.973 287.532C564.715 287.746 564.368 287.866 564.006 287.866Z" fill="#010035"/>
<path d="M529.947 263.791C529.159 260.567 527.334 257.59 524.672 255.189C522.925 253.106 520.821 251.255 518.429 249.697C517.229 248.922 515.841 248.384 514.364 248.121C512.887 247.858 511.36 247.877 509.893 248.178C508.651 248.56 507.517 249.16 506.565 249.937C505.613 250.714 504.865 251.651 504.369 252.689C503.376 254.787 502.952 257.047 503.126 259.303C503.387 264.236 505.182 269.022 508.329 273.18C511.477 277.337 515.866 280.718 521.053 282.98L520.141 282.255" fill="white"/>
<path d="M520.97 284.102C520.757 284.099 520.548 284.051 520.362 283.962C514.972 281.592 510.408 278.068 507.127 273.742C503.846 269.415 501.962 264.437 501.662 259.303C501.492 256.91 501.955 254.515 503.015 252.291C503.602 251.09 504.485 250.008 505.604 249.117C506.723 248.227 508.054 247.548 509.507 247.126C511.173 246.77 512.912 246.737 514.595 247.028C516.279 247.32 517.863 247.928 519.23 248.809C521.737 250.424 523.936 252.355 525.749 254.535C528.576 257.105 530.49 260.296 531.273 263.744C531.312 264.051 531.206 264.358 530.979 264.599C530.751 264.839 530.42 264.994 530.058 265.03C529.696 265.062 529.333 264.973 529.048 264.78C528.764 264.588 528.58 264.307 528.539 264.001C527.76 260.988 526.033 258.21 523.539 255.961C521.882 253.98 519.891 252.216 517.628 250.725C516.598 250.053 515.405 249.583 514.134 249.349C512.863 249.114 511.547 249.121 510.28 249.37C509.21 249.696 508.233 250.211 507.414 250.879C506.595 251.548 505.953 252.356 505.529 253.25C504.615 255.185 504.228 257.27 504.397 259.35C504.661 263.778 506.204 268.083 508.891 271.889C511.578 275.695 515.327 278.885 519.81 281.18C520.012 281.146 520.22 281.154 520.417 281.203C520.614 281.251 520.795 281.34 520.943 281.461L521.882 282.162C522.099 282.319 522.254 282.53 522.324 282.764C522.394 282.999 522.376 283.246 522.273 283.472C522.17 283.698 521.987 283.891 521.748 284.025C521.51 284.158 521.228 284.226 520.943 284.219L520.97 284.102Z" fill="#010035"/>
<path d="M535.776 304.694C535.776 304.694 522.268 302.357 515.363 295.111C515.363 295.111 517.793 312.407 538.51 316.614L535.776 304.694Z" fill="#010035"/>
<path d="M538.51 317.782H538.179C516.771 313.458 514.009 295.484 513.982 295.297C513.946 295.046 514.007 294.791 514.156 294.572C514.306 294.353 514.535 294.181 514.81 294.081C515.083 293.979 515.387 293.956 515.677 294.015C515.967 294.074 516.225 294.212 516.412 294.409C522.959 301.163 535.914 303.571 536.052 303.594C536.321 303.642 536.568 303.756 536.759 303.922C536.951 304.089 537.08 304.3 537.129 304.529L539.892 316.426C539.933 316.596 539.928 316.771 539.879 316.939C539.83 317.108 539.738 317.265 539.608 317.399C539.479 317.533 539.315 317.641 539.13 317.716C538.945 317.79 538.743 317.828 538.538 317.828L538.51 317.782ZM517.793 298.803C519.138 302.609 521.57 306.076 524.875 308.897C528.18 311.718 532.256 313.806 536.743 314.977L534.588 305.628C528.497 304.372 522.78 302.064 517.793 298.849V298.803Z" fill="#010035"/>
<path d="M551.056 244.927C551.291 242.353 550.508 240.202 549.306 240.124C548.105 240.045 546.94 242.068 546.705 244.642C546.47 247.216 547.253 249.366 548.455 249.445C549.656 249.524 550.821 247.501 551.056 244.927Z" fill="#010035"/>
<path d="M405.121 401.317L376.78 443.388L302.972 379.3C302.972 379.3 308.938 352.071 300.983 354.244C295.957 355.759 291.586 358.52 288.442 362.168C288.442 362.168 281.896 324.771 264.659 337.065C247.423 349.359 255.35 370.956 268.416 391.711C278.111 407.114 364.267 519.467 388.16 514.956C412.054 510.445 468.791 408.399 468.791 408.399L405.121 401.317Z" fill="white"/>
<path d="M386.834 516.22C359.681 516.22 275.846 405.993 267.2 392.343C256.317 375.023 244.108 350.271 263.775 336.247C267.421 333.63 270.957 332.835 274.299 333.91C283.36 336.808 287.835 353.099 289.271 359.62C292.334 356.731 296.225 354.558 300.569 353.31C301.155 353.116 301.793 353.063 302.413 353.158C303.032 353.253 303.608 353.491 304.077 353.847C308.69 357.283 305.458 374.322 304.463 379.09L376.476 441.426L403.933 400.687C404.068 400.484 404.272 400.32 404.518 400.216C404.764 400.112 405.041 400.073 405.314 400.103L468.846 407.115C469.062 407.137 469.269 407.204 469.447 407.31C469.625 407.416 469.77 407.558 469.868 407.722C469.963 407.886 470.013 408.066 470.013 408.248C470.013 408.43 469.963 408.61 469.868 408.774C467.52 412.958 412.523 511.405 388.271 515.963C387.803 516.087 387.322 516.173 386.834 516.22ZM271.344 335.71C269.144 335.882 267.087 336.71 265.543 338.047C251.732 347.957 253.03 364.879 269.659 391.268C280.183 408.003 365.675 518.066 387.856 513.929C409.292 509.886 459.675 421.886 466.747 409.452L405.977 402.674L378.078 444.067C377.971 444.224 377.824 444.358 377.646 444.459C377.469 444.56 377.267 444.626 377.056 444.652C376.843 444.677 376.627 444.658 376.425 444.597C376.223 444.536 376.041 444.435 375.896 444.301L302.088 380.212C301.937 380.076 301.826 379.913 301.764 379.734C301.702 379.555 301.689 379.367 301.729 379.184C303.607 370.559 305.071 357.54 302.364 355.53C302.364 355.53 302.06 355.32 301.508 355.53C296.786 356.977 292.673 359.571 289.685 362.986C289.524 363.18 289.3 363.329 289.04 363.416C288.78 363.504 288.495 363.525 288.221 363.477C287.953 363.424 287.71 363.304 287.523 363.134C287.336 362.963 287.214 362.749 287.172 362.519C286.039 356.044 281.398 338.725 273.36 336.201C272.731 335.93 272.047 335.763 271.344 335.71Z" fill="#010035"/>
<path d="M621.019 382.456C621.019 382.456 678.143 369.928 699.551 359.293C723.03 347.607 767.254 273.795 781.618 255.447C789.414 245.315 795.208 234.176 798.772 222.468C800.429 217.232 801.202 213.446 798.109 208.444C797.473 207.392 787.336 197.996 786.866 199.095C789.628 192.527 792.391 186.286 795.319 179.789C796.092 177.989 796.672 175.722 795.042 174.413C794.329 173.941 793.449 173.685 792.543 173.685C791.637 173.685 790.757 173.941 790.043 174.413C788.602 175.347 787.431 176.546 786.618 177.919L763.138 212.371C763.327 208.117 762.314 203.886 760.183 200.03C759.847 199.256 759.24 198.587 758.442 198.113C755.873 196.898 753.387 199.866 752.586 202.25C748.415 214.685 751.426 229.667 742.421 240.675C735.571 249.043 674.718 310.794 674.718 310.794L621.019 322.481" fill="white"/>
<path d="M621.019 383.624C620.653 383.664 620.283 383.58 619.99 383.389C619.698 383.199 619.506 382.917 619.459 382.607C619.411 382.298 619.511 381.984 619.736 381.737C619.962 381.489 620.294 381.327 620.66 381.287C621.24 381.17 677.867 368.712 698.86 358.265C715.848 349.804 744.714 307.008 763.829 278.68C770.734 268.466 776.673 259.631 780.402 254.793C788.105 244.734 793.824 233.683 797.335 222.071C798.91 217.162 799.738 213.586 796.783 208.795C793.828 205.661 790.536 202.766 786.949 200.147C786.749 200.182 786.542 200.182 786.341 200.147C785.996 200.041 785.714 199.825 785.554 199.546C785.394 199.267 785.369 198.946 785.485 198.651C787.17 194.444 789.048 190.307 790.844 186.287C791.893 183.95 792.916 181.612 793.938 179.275C794.96 176.938 794.877 175.839 793.938 175.161C793.462 174.863 792.886 174.703 792.294 174.703C791.702 174.703 791.126 174.863 790.65 175.161C789.413 176.028 788.414 177.113 787.722 178.34L764.16 212.862C764.01 213.09 763.771 213.268 763.485 213.365C763.199 213.463 762.881 213.475 762.586 213.399C762.347 213.311 762.143 213.168 761.996 212.986C761.85 212.804 761.767 212.591 761.757 212.371C761.918 208.347 760.972 204.347 758.995 200.685C758.761 200.139 758.349 199.661 757.807 199.306C757.656 199.232 757.484 199.193 757.31 199.193C757.135 199.193 756.964 199.232 756.813 199.306C755.4 200.126 754.412 201.372 754.05 202.788C752.629 207.541 751.705 212.39 751.288 217.279C750.377 225.694 749.41 234.412 743.554 241.54C736.759 249.884 678.254 309.135 675.768 311.659C675.583 311.847 675.331 311.978 675.049 312.033L621.351 323.719C620.996 323.791 620.622 323.744 620.308 323.587C619.993 323.43 619.763 323.176 619.666 322.878C619.62 322.729 619.61 322.574 619.635 322.422C619.66 322.27 619.721 322.123 619.813 321.99C619.906 321.858 620.028 321.742 620.173 321.65C620.319 321.558 620.484 321.49 620.66 321.452L673.945 309.766C678.447 305.091 734.714 248.061 741.289 240.115C746.813 233.477 747.642 225.062 748.553 216.952C748.939 211.913 749.863 206.914 751.316 202.017C751.607 200.968 752.153 199.982 752.919 199.121C753.684 198.26 754.653 197.543 755.763 197.015C756.307 196.819 756.898 196.734 757.488 196.767C758.078 196.799 758.651 196.948 759.161 197.202C760.221 197.739 761.038 198.562 761.481 199.539C763.006 202.299 763.985 205.252 764.381 208.281L785.485 177.312C786.409 175.766 787.741 174.423 789.38 173.385C790.364 172.776 791.559 172.459 792.778 172.484C793.997 172.51 795.172 172.876 796.12 173.525C797.832 174.904 798.053 177.148 796.727 180.163C795.705 182.5 794.656 184.838 793.606 187.175C791.976 190.821 790.291 194.584 788.717 198.394C792.7 201.154 796.295 204.291 799.435 207.743C802.832 213.259 801.893 217.42 800.208 222.702C796.6 234.523 790.751 245.771 782.888 256.008C779.132 260.8 773.221 269.588 766.315 279.755C745.902 310 717.975 351.44 700.324 360.205C679.027 370.816 623.782 382.97 621.434 383.577L621.019 383.624Z" fill="#010035"/>
<path d="M634.693 584L616.821 515.237L438.572 555.696C438.572 555.696 438.931 566.985 439.428 583.954L634.693 584Z" fill="#010035"/>
<path d="M670.602 305.861C670.602 305.861 467.796 302.239 442.052 333.044C422.017 358.608 405.239 385.897 392 414.452L428.462 443.294C428.301 484.085 430.754 524.852 435.809 565.418C498.651 574.767 628.837 532.228 627.732 531.808L611.158 389.233L688.778 368.945L670.602 305.861Z" fill="#0263A5"/>
<path d="M426.086 432.589C425.905 432.583 425.726 432.547 425.562 432.483C425.397 432.419 425.249 432.327 425.125 432.214C425.002 432.102 424.907 431.969 424.844 431.825C424.781 431.681 424.753 431.528 424.76 431.374C424.76 428.803 427.163 367.963 437.025 346.694C437.089 346.549 437.186 346.417 437.312 346.305C437.438 346.193 437.59 346.104 437.757 346.043C437.925 345.982 438.106 345.95 438.288 345.949C438.471 345.949 438.652 345.98 438.82 346.04C438.99 346.091 439.146 346.172 439.278 346.276C439.41 346.38 439.516 346.506 439.588 346.646C439.661 346.787 439.699 346.938 439.7 347.091C439.7 347.243 439.664 347.395 439.594 347.536C429.926 368.431 427.55 430.837 427.523 431.444C427.508 431.756 427.35 432.051 427.081 432.265C426.812 432.479 426.455 432.596 426.086 432.589Z" fill="#010035"/>
<path d="M583.397 396.525C583.097 396.529 582.804 396.449 582.565 396.296C582.325 396.144 582.151 395.929 582.072 395.684C581.978 395.383 582.026 395.064 582.207 394.793C582.387 394.522 582.686 394.322 583.038 394.235L640.355 380.445C640.722 380.358 641.114 380.398 641.445 380.556C641.777 380.714 642.021 380.976 642.123 381.286C642.226 381.596 642.179 381.928 641.992 382.208C641.806 382.489 641.495 382.695 641.129 382.782L583.784 396.572C583.653 396.58 583.521 396.564 583.397 396.525Z" fill="#010035"/>
<path d="M807.473 560.254H707.23C705.84 560.257 704.462 560.028 703.177 559.579C701.892 559.13 700.724 558.471 699.741 557.639C698.758 556.807 697.979 555.819 697.448 554.732C696.918 553.644 696.647 552.479 696.65 551.302V457.6C696.65 456.425 696.924 455.261 697.456 454.175C697.987 453.088 698.767 452.102 699.749 451.27C700.731 450.439 701.898 449.78 703.181 449.33C704.465 448.88 705.841 448.648 707.23 448.648H795.622L817.942 467.066V551.209C817.956 552.384 817.697 553.551 817.179 554.642C816.66 555.733 815.893 556.726 814.921 557.566C813.949 558.406 812.791 559.076 811.513 559.537C810.235 559.998 808.862 560.242 807.473 560.254Z" fill="white"/>
<path d="M807.473 561.421H707.23C704.058 561.421 701.016 560.355 698.772 558.457C696.529 556.559 695.269 553.985 695.269 551.301V457.599C695.277 454.917 696.539 452.346 698.781 450.449C701.022 448.553 704.06 447.484 707.23 447.478H795.623C795.802 447.475 795.979 447.502 796.146 447.558C796.312 447.615 796.463 447.699 796.589 447.806L818.936 466.247C819.194 466.464 819.342 466.757 819.35 467.065V551.207C819.373 553.894 818.134 556.478 815.908 558.393C813.681 560.307 810.647 561.397 807.473 561.421ZM707.23 449.816C704.793 449.822 702.457 450.644 700.734 452.102C699.01 453.56 698.039 455.536 698.032 457.599V551.278C698.032 552.3 698.27 553.312 698.732 554.256C699.194 555.2 699.872 556.058 700.726 556.781C701.58 557.504 702.594 558.077 703.71 558.468C704.826 558.859 706.022 559.061 707.23 559.061H807.473C809.91 559.055 812.245 558.233 813.969 556.774C815.692 555.316 816.664 553.34 816.671 551.278V467.556L795.153 449.816H707.23Z" fill="#010035"/>
<path d="M673.779 109.53C676.342 109.53 678.419 107.772 678.419 105.603C678.419 103.434 676.342 101.676 673.779 101.676C671.216 101.676 669.138 103.434 669.138 105.603C669.138 107.772 671.216 109.53 673.779 109.53Z" fill="#007ED2"/>
<path d="M689.883 109.53C692.446 109.53 694.523 107.772 694.523 105.603C694.523 103.434 692.446 101.676 689.883 101.676C687.32 101.676 685.242 103.434 685.242 105.603C685.242 107.772 687.32 109.53 689.883 109.53Z" fill="#007ED2"/>
<path d="M705.987 109.53C708.55 109.53 710.627 107.772 710.627 105.603C710.627 103.434 708.55 101.676 705.987 101.676C703.424 101.676 701.346 103.434 701.346 105.603C701.346 107.772 703.424 109.53 705.987 109.53Z" fill="#007ED2"/>
<path d="M794.904 167.238C794.588 167.236 794.284 167.136 794.048 166.957C793.783 166.767 793.618 166.496 793.587 166.203C793.556 165.91 793.662 165.619 793.882 165.391L805.815 153.424C805.941 153.299 806.097 153.198 806.274 153.129C806.451 153.061 806.643 153.026 806.837 153.027H836.697C837.064 153.027 837.415 153.15 837.674 153.369C837.933 153.588 838.079 153.886 838.079 154.196C838.079 154.505 837.933 154.803 837.674 155.022C837.415 155.241 837.064 155.364 836.697 155.364H807.39L795.843 167.051C795.569 167.211 795.234 167.277 794.904 167.238Z" fill="#007ED2"/>
<path d="M795.733 448.648V467.627L818.052 467.066L795.733 448.648Z" fill="#007ED2"/>
<path d="M795.705 468.794C795.354 468.792 795.017 468.675 794.766 468.467C794.626 468.361 794.515 468.231 794.439 468.086C794.362 467.941 794.323 467.784 794.324 467.625V448.646C794.329 448.416 794.413 448.193 794.565 448.002C794.716 447.811 794.93 447.661 795.181 447.571C795.428 447.48 795.703 447.453 795.969 447.495C796.235 447.536 796.48 447.644 796.672 447.805L819.019 466.246C819.207 466.408 819.335 466.613 819.388 466.835C819.44 467.058 819.415 467.288 819.316 467.499C819.216 467.71 819.046 467.891 818.827 468.022C818.607 468.152 818.348 468.225 818.08 468.233L795.761 468.794H795.705ZM797.087 451.428V466.433L814.737 465.989L797.087 451.428Z" fill="#010035"/>
<path d="M312.612 498.011H284.244C280.079 498.011 276.703 500.868 276.703 504.392V528.395C276.703 531.92 280.079 534.776 284.244 534.776H312.612C316.777 534.776 320.153 531.92 320.153 528.395V504.392C320.153 500.868 316.777 498.011 312.612 498.011Z" fill="#007ED2"/>
<path d="M305.126 486.229H275.819C271.913 486.229 268.747 488.908 268.747 492.213V517.012C268.747 520.316 271.913 522.995 275.819 522.995H305.126C309.032 522.995 312.198 520.316 312.198 517.012V492.213C312.198 488.908 309.032 486.229 305.126 486.229Z" fill="white"/>
<path d="M305.126 524.165H275.819C274.704 524.172 273.599 523.991 272.567 523.635C271.535 523.278 270.597 522.752 269.806 522.087C269.015 521.423 268.388 520.632 267.96 519.761C267.531 518.89 267.311 517.957 267.311 517.013V492.215C267.311 490.318 268.201 488.499 269.787 487.157C271.372 485.816 273.522 485.063 275.763 485.062H305.071C306.181 485.062 307.28 485.247 308.306 485.607C309.331 485.966 310.263 486.493 311.048 487.157C311.833 487.821 312.455 488.61 312.88 489.478C313.305 490.345 313.524 491.275 313.524 492.215V517.013C313.524 518.902 312.641 520.714 311.067 522.054C309.494 523.394 307.358 524.153 305.126 524.165ZM275.819 487.4C275.067 487.394 274.321 487.514 273.624 487.753C272.927 487.992 272.294 488.346 271.759 488.793C271.225 489.241 270.801 489.774 270.511 490.361C270.222 490.948 270.073 491.578 270.073 492.215V517.013C270.073 518.29 270.673 519.515 271.74 520.418C272.807 521.321 274.254 521.828 275.763 521.828H305.071C306.58 521.828 308.028 521.321 309.095 520.418C310.162 519.515 310.761 518.29 310.761 517.013V492.215C310.761 490.938 310.162 489.713 309.095 488.81C308.028 487.907 306.58 487.4 305.071 487.4H275.819Z" fill="#010035"/>
<path d="M751.371 539.334V533.818C748.995 533.257 746.703 532.859 744.465 532.205C740.149 531.063 736.413 528.725 733.858 525.567C731.757 522.779 730.689 519.523 730.792 516.218H743.526C743.609 518.092 744.42 519.891 745.834 521.336C747.247 522.781 749.183 523.791 751.343 524.211V509.58C748.774 508.949 746.233 508.365 743.692 507.687C740.922 507.012 738.384 505.785 736.289 504.111C734.115 502.27 732.676 499.9 732.173 497.333C731.435 494.212 731.712 490.981 732.974 487.983C733.912 485.825 735.4 483.868 737.334 482.252C739.268 480.636 741.599 479.401 744.161 478.634C746.276 478.071 748.424 477.603 750.597 477.232L751.371 477.092V469.472H763.304V470.197C763.304 472.277 763.304 474.38 763.304 476.461C763.304 476.975 763.497 477.138 764.077 477.255C768.135 477.92 771.932 479.43 775.126 481.649C778.526 483.999 780.779 487.329 781.452 490.999C781.673 492.004 781.756 493.032 781.922 494.084H768.967C768.945 492.588 768.412 491.13 767.432 489.886C766.451 488.641 765.065 487.664 763.442 487.072V500.745L764.851 501.026C768.353 501.599 771.765 502.517 775.016 503.76C777.458 504.656 779.565 506.098 781.112 507.93C782.66 509.762 783.589 511.916 783.8 514.161C784.563 518.344 783.363 522.613 780.458 526.058C778.066 528.86 774.708 530.966 770.845 532.088C768.442 532.789 765.956 533.233 763.387 533.841V539.193L751.371 539.334ZM763.332 511.543V524.258C765.272 524.018 767.098 523.331 768.608 522.271C769.387 521.735 770.009 521.054 770.427 520.281C770.845 519.508 771.047 518.664 771.018 517.814C770.988 516.964 770.728 516.132 770.258 515.381C769.787 514.63 769.118 513.981 768.304 513.483C766.702 512.74 765.04 512.091 763.332 511.543ZM751.343 498.525V486.231C749.78 486.809 748.258 487.465 746.786 488.194C745.94 488.704 745.256 489.383 744.798 490.172C744.339 490.96 744.119 491.833 744.157 492.711C744.196 493.589 744.491 494.446 745.017 495.204C745.544 495.961 746.284 496.596 747.172 497.052C748.471 497.636 749.879 498.034 751.343 498.548V498.525Z" fill="#007ED2"/>
<path d="M351.284 142.977H229.633V204.307H351.284V142.977Z" fill="#007ED2"/>
</svg>
